<?xml version="1.0" standalone="no"?>
<!DOCTYPE svg PUBLIC "-//W3C//DTD SVG 1.1//EN" "http://www.w3.org/Graphics/SVG/1.1/DTD/svg11.dtd" >
<svg xmlns="http://www.w3.org/2000/svg">
<metadata>
Created by FontForge 20120731 at Fri May 12 09:38:21 2017
 By admin
</metadata>
<defs>
<font id="iconfont" horiz-adv-x="1024" >
  <font-face 
    font-family="iconfont"
    font-weight="500"
    font-stretch="normal"
    units-per-em="1024"
    panose-1="2 0 6 3 0 0 0 0 0 0"
    ascent="896"
    descent="-128"
    x-height="792"
    bbox="-0.333333 -130 1465 897"
    underline-thickness="0"
    underline-position="0"
    unicode-range="U+0078-E765"
  />
<missing-glyph 
 />
    <glyph glyph-name=".notdef" 
 />
    <glyph glyph-name=".notdef" 
 />
    <glyph glyph-name=".null" horiz-adv-x="0" 
 />
    <glyph glyph-name="nonmarkingreturn" horiz-adv-x="341" 
 />
    <glyph glyph-name="x" unicode="x" horiz-adv-x="1001" 
d="M281 543q-27 -1 -53 -1h-83q-18 0 -36.5 -6t-32.5 -18.5t-23 -32t-9 -45.5v-76h912v41q0 16 -0.5 30t-0.5 18q0 13 -5 29t-17 29.5t-31.5 22.5t-49.5 9h-133v-97h-438v97zM955 310v-52q0 -23 0.5 -52t0.5 -58t-10.5 -47.5t-26 -30t-33 -16t-31.5 -4.5q-14 -1 -29.5 -0.5
t-29.5 0.5h-32l-45 128h-439l-44 -128h-29h-34q-20 0 -45 1q-25 0 -41 9.5t-25.5 23t-13.5 29.5t-4 30v167h911zM163 247q-12 0 -21 -8.5t-9 -21.5t9 -21.5t21 -8.5q13 0 22 8.5t9 21.5t-9 21.5t-22 8.5zM316 123q-8 -26 -14 -48q-5 -19 -10.5 -37t-7.5 -25t-3 -15t1 -14.5
t9.5 -10.5t21.5 -4h37h67h81h80h64h36q23 0 34 12t2 38q-5 13 -9.5 30.5t-9.5 34.5q-5 19 -11 39h-368zM336 498v228q0 11 2.5 23t10 21.5t20.5 15.5t34 6h188q31 0 51.5 -14.5t20.5 -52.5v-227h-327z" />
    <glyph glyph-name="cmstubiaozitihua11" unicode="&#xe755;" 
d="M225 302q-4 0 -8 2q-9 3 -13 11.5t-1 17.5l130 358q4 11 16 14l631 175q17 5 26 -10t-4 -28l-200 -201q-7 -6 -16.5 -6t-16.5 6.5t-7 16t7 16.5l139 139l-536 -149l-126 -347q-5 -15 -21 -15zM453 74q-16 0 -22 15q-3 9 1 17.5t13 11.5l347 126l149 536l-139 -139
q-7 -6 -16.5 -6t-16.5 6.5t-7 16t7 16.5l201 200q12 13 27.5 4t10.5 -26l-175 -631q-3 -12 -14 -16l-358 -130q-4 -1 -8 -1zM561.5 316q-48.5 0 -83 34t-34.5 83t34 83t83.5 34t82.5 -34q35 -34 35 -83t-34 -83q-35 -34 -83.5 -34zM561.5 505q-29.5 0 -50.5 -21t-21 -50.5
t21 -50.5q20 -21 50.5 -21t50.5 21q21 21 21 50.5t-21 50.5t-50.5 21zM427 -113q-46 0 -78 33l-301 300q-33 33 -33 79t33 79q31 31 78 31t79 -31l301 -301q32 -33 32 -79t-32 -79q-33 -32 -79 -32zM126 364q-27 0 -46 -19t-19 -46t19 -46l301 -301q19 -19 46.5 -19t45.5 19
q19 19 19 46t-19 46l-301 301q-19 19 -46 19z" />
    <glyph glyph-name="aligncenter" unicode="&#xe705;" 
d="M0 812v-128h1024v128h-1024zM128 556v-128h768v128h-768zM0 300v-128h1024v128h-1024zM128 44v-128h768v128h-768z" />
    <glyph glyph-name="alignright" unicode="&#xe706;" 
d="M0 812v-128h1024v128h-1024zM256 556v-128h768v128h-768zM0 300v-128h1024v128h-1024zM256 44v-128h768v128h-768z" />
    <glyph glyph-name="alignleft" unicode="&#xe707;" 
d="M0 812v-128h1024v128h-1024zM0 556v-128h768v128h-768zM0 300v-128h1024v128h-1024zM0 44v-128h768v128h-768z" />
    <glyph glyph-name="menu" unicode="&#xe668;" 
d="M98 693h828v-103h-828v103zM98 434h828v-103h-828v103zM98 175h828v-103h-828v103z" />
    <glyph glyph-name="home-line" unicode="&#xe65f;" horiz-adv-x="1247" 
d="M1184 233l63 62l-610 601l-637 -623h227v-401h361v178h93v-178h361v401l-89 89v-401h-183v178h-271v-178h-183v401h-98l419 409z" />
    <glyph glyph-name="pie-chart" unicode="&#xe63c;" 
d="M521 896v-512h503q0 104 -40 198t-107.5 162.5t-160.5 109t-195 42.5zM930 299q-29 -148 -147 -245t-271 -97q-115 0 -213.5 57.5t-156 156t-57.5 213.5q0 153 97 271t245 147v85q-120 -19 -218 -90.5t-153.5 -180t-55.5 -232.5q0 -138 69 -256t187 -187t256 -69
q124 0 232.5 55.5t180 153.5t90.5 218h-85z" />
    <glyph glyph-name="password" unicode="&#xe601;" 
d="M800 480v128q0 119 -84.5 203.5t-203.5 84.5t-203.5 -84.5t-84.5 -203.5v-128q-40 0 -68 -28t-28 -68v-224q0 -119 84.5 -203.5t203.5 -84.5h192q119 0 203.5 84.5t84.5 203.5v224q0 40 -28 68t-68 28zM288 608q0 93 65.5 158.5t158.5 65.5t158.5 -65.5t65.5 -158.5v-128
h-64v128q0 66 -47 113t-113 47t-113 -47t-47 -113v-128h-64v128zM640 608v-128h-256v128q0 53 37.5 90.5t90.5 37.5t90.5 -37.5t37.5 -90.5zM832 288v-128q0 -93 -65.5 -158.5t-158.5 -65.5h-192q-93 0 -158.5 65.5t-65.5 158.5v224q0 13 9.5 22.5t22.5 9.5h64h448h64
q13 0 22.5 -9.5t9.5 -22.5v-96zM512 288q27 0 45.5 -18.5t18.5 -45.5q0 -28 -21 -86q-8 -21 -17 -31.5t-26 -10.5q-27 0 -43 42q-21 59 -21 86t18.5 45.5t45.5 18.5z" />
    <glyph glyph-name="username" unicode="&#xe602;" horiz-adv-x="1025" 
d="M996 -11q-16 11 -42 25.5t-102 45.5t-153 48q44 55 75.5 126.5t46.5 134.5q9 39 10.5 91t-6 109t-29.5 115.5t-57 102.5q-86 109 -227 109t-227 -109q-35 -44 -57 -102.5t-29.5 -115.5t-6 -109t10.5 -91q15 -63 46.5 -134.5t75.5 -126.5q-77 -17 -153 -48t-102 -45.5
t-41 -25.5q-18 -11 -25 -31t-1 -40.5t23 -33t38 -12.5h896q21 0 38 12.5t23 33t-1 40.5t-24 31zM649 147l-11 -13q-57 -66 -126 -66t-126 66l-10 13q-68 86 -98.5 192.5t-16.5 212.5q7 54 25.5 102t48 89t75.5 65t102 24t102 -24t75.5 -65t48 -89t25.5 -102
q14 -106 -16.5 -212.5t-97.5 -192.5zM64 -64q13 9 37.5 22.5t95 42t142.5 44.5l79 17q46 -30 94 -30t94 30l79 -17q72 -15 142 -43.5t94 -42t39 -23.5h-896z" />
    <glyph glyph-name="cog" unicode="&#xe606;" 
d="M934 286q-41 70 -19.5 148t91.5 118l-101 175q-45 -27 -98 -27q-80 0 -137 57.5t-57 138.5h-202q1 -53 -25 -98q-41 -70 -119 -90.5t-148 19.5l-101 -174q46 -26 72 -72q40 -69 19 -147t-91 -119l101 -174q45 26 97 26q81 0 138 -57t57 -138h201q0 52 26 97
q40 70 118 90.5t149 -19.5l100 175q-45 25 -71 71v0zM512 177q-86 0 -146.5 60.5t-60.5 146.5t60.5 146.5t146.5 60.5t146.5 -60.5t60.5 -146.5t-60.5 -146.5t-146.5 -60.5z" />
    <glyph glyph-name="users" unicode="&#xe617;" horiz-adv-x="1152" 
d="M768 125v53q54 31 91 98t37 140q0 45 -0.5 67t-4 59t-10.5 55t-21 42.5t-34 36t-51 20t-71 8.5t-71 -8.5t-51 -20t-34 -36t-21 -42.5t-10.5 -55t-4 -59t-0.5 -67q0 -73 37 -140t91 -98v-53q-107 -8 -195 -43.5t-138.5 -91t-50.5 -118.5h896q0 63 -50.5 118.5t-138.5 91
t-195 43.5zM327 101q84 54 200 80q-23 27 -41 59q-46 85 -46 176q0 57 1 87t8 73t22 74q44 97 159 119q-14 62 -55.5 94.5t-126.5 32.5q-40 0 -71 -8.5t-51 -20t-34 -36t-21 -42.5t-10.5 -55t-4 -59t-0.5 -67q0 -73 37 -140t91 -98v-53q-107 -8 -195 -43.5t-138.5 -91
t-50.5 -118.5h279q22 20 48 37v0z" />
    <glyph glyph-name="infocircle" unicode="&#xe61e;" 
d="M670 110v91q0 8 -5 13t-13 5h-55v293q0 8 -5 13t-13 5h-183q-8 0 -13 -5t-5 -13v-91q0 -8 5 -13.5t13 -5.5h55v-183h-55q-8 0 -13 -5t-5 -13v-91q0 -8 5 -13.5t13 -5.5h256q8 0 13 5.5t5 13.5zM597 622v91q0 8 -5 13t-13 5h-110q-8 0 -13 -5t-5 -13v-91q0 -8 5 -13.5
t13 -5.5h110q8 0 13 5.5t5 13.5zM963 384q0 -119 -59 -220t-159.5 -160t-220 -59t-220.5 59t-160 160t-59 220t59 220t160 160t220.5 59t220 -59t159.5 -160t59 -220z" />
    <glyph glyph-name="search" unicode="&#xe622;" 
d="M695 420.5q0 105.5 -75 181t-181 75.5t-181 -75.5t-75 -181t75 -180.5t181 -75t181 75t75 180.5zM987 -55q0 -30 -21.5 -51.5t-51.5 -21.5q-31 0 -51 22l-196 195q-102 -71 -228 -71q-82 0 -156.5 32t-128.5 86t-85.5 128.5t-31.5 156t31.5 156t85.5 128.5t128.5 86
t156.5 32t156.5 -32t128.5 -86t85.5 -128.5t31.5 -155.5q0 -126 -71 -228l196 -196q21 -22 21 -52v0z" />
    <glyph glyph-name="user" unicode="&#xe625;" 
d="M914 93q0 -68 -41.5 -108t-110.5 -40h-500q-69 0 -110.5 40t-41.5 108q0 30 2 59t8 62.5t15 62t24.5 55.5t35.5 46.5t49 31t63 11.5q6 0 24.5 -12.5t42.5 -27.5t62 -27.5t76 -12.5t76 12.5t62 27.5t42.5 27.5t24.5 12.5q34 0 63 -11.5t49 -31t35.5 -46.5t24.5 -55.5
t15 -62t8 -62.5t2 -59zM731 603.5q0 -90.5 -64 -155t-155 -64.5t-155 64.5t-64 155t64 155t155 64.5t155 -64.5t64 -155z" />
    <glyph glyph-name="minusalt" unicode="&#xe61b;" 
d="M512 896q-139 0 -257 -68.5t-186.5 -186.5t-68.5 -257t68.5 -257t186.5 -186.5t257 -68.5t257 68.5t186.5 186.5t68.5 257t-68.5 257t-186.5 186.5t-257 68.5zM768 320h-512v128h512v-128z" />
    <glyph glyph-name="plus" unicode="&#xe699;" 
d="M914 475v-109q0 -23 -16 -39t-39 -16h-237v-238q0 -23 -16 -39t-39 -16h-110q-23 0 -39 16t-16 39v238h-237q-23 0 -39 16t-16 39v109q0 23 16 39t39 16h237v238q0 23 16 39t39 16h110q23 0 39 -16t16 -39v-238h237q23 0 39 -16t16 -39z" />
    <glyph glyph-name="timescircle" unicode="&#xe621;" 
d="M742 255q0 15 -11 26l-103 103l103 103q11 11 11 26q0 16 -11 26l-51 52q-11 11 -27 11q-15 0 -25 -11l-104 -104l-103 104q-11 11 -26 11t-26 -11l-52 -52q-11 -10 -11 -26q0 -15 11 -26l104 -103l-104 -103q-11 -11 -11 -26q0 -16 11 -26l52 -52q11 -11 26 -11t26 11
l103 104l104 -104q10 -11 25 -11q16 0 27 11l51 52q11 10 11 26zM963 384q0 -119 -59 -220t-159.5 -160t-220 -59t-220.5 59t-160 160t-59 220t59 220t160 160t220.5 59t220 -59t159.5 -160t59 -220z" />
    <glyph glyph-name="eye" unicode="&#xe626;" horiz-adv-x="1025" 
d="M951 347q-87 135 -218 202q35 -59 35 -128q0 -106 -75 -181t-181 -75t-181 75t-75 181q0 69 35 128q-131 -67 -218 -202q76 -117 190.5 -186.5t248.5 -69.5t248.5 69.5t190.5 186.5zM539.5 566.5q0.5 11.5 -8 19.5t-19.5 8q-71 0 -122.5 -51t-51.5 -122q0 -12 8 -20
t19.5 -8t19.5 8t8 20q0 49 35 83.5t84 34.5q12 0 19.5 8t8 19.5zM1024 347.5q0 -19.5 -11 -39.5q-80 -131 -215.5 -210.5t-285.5 -79.5t-285.5 79.5t-215.5 210.5q-11 20 -11 39.5t11 39.5q80 131 215.5 210.5t285.5 79.5t285.5 -79.5t215.5 -210.5q11 -20 11 -39.5z" />
    <glyph glyph-name="save" unicode="&#xe627;" 
d="M219 18h439v220h-439v-220zM731 18h74v512q0 8 -6 22t-12 20l-160 161q-6 5 -19.5 11t-22.5 6v-238q0 -23 -16 -39t-39 -16h-329q-23 0 -39 16t-16 39v238h-73v-732h73v238q0 23 16 39t39 16h476q22 0 38 -16t16 -39v-238v0zM512 549v182q0 8 -5.5 13.5t-12.5 5.5h-110
q-7 0 -12.5 -5.5t-5.5 -13.5v-182q0 -8 5.5 -13.5t12.5 -5.5h110q7 0 12.5 5.5t5.5 13.5zM878 530v-530q0 -23 -16 -39t-39 -16h-768q-23 0 -39 16t-16 39v768q0 23 16 39t39 16h530q23 0 50.5 -11.5t43.5 -27.5l160 -160q16 -16 27.5 -43.5t11.5 -50.5v0z" />
    <glyph glyph-name="drag" unicode="&#xe61c;" 
d="M1024 384q0 -15 -11 -26l-146 -146q-11 -11 -26 -11t-25.5 11t-10.5 26v73h-220v-220h73q15 0 26 -10.5t11 -25.5t-11 -26l-146 -146q-11 -11 -26 -11t-26 11l-146 146q-11 11 -11 26t11 25.5t26 10.5h73v220h-220v-73q0 -15 -10.5 -26t-25.5 -11t-26 11l-146 146
q-11 11 -11 26t11 26l146 146q11 11 26 11t25.5 -11t10.5 -26v-73h220v220h-73q-15 0 -26 10.5t-11 25.5t11 26l146 146q11 11 26 11t26 -11l146 -146q11 -11 11 -26t-11 -25.5t-26 -10.5h-73v-220h220v73q0 15 10.5 26t25.5 11t26 -11l146 -146q11 -11 11 -26z" />
    <glyph glyph-name="btndanxuankuangxuanzhong" unicode="&#xe61a;" 
d="M512 832q-187 0 -317.5 -130.5t-130.5 -317.5t130.5 -317.5t317.5 -130.5t317.5 130.5t130.5 317.5t-130.5 317.5t-317.5 130.5zM512 256q-53 0 -90.5 37.5t-37.5 90.5t37.5 90.5t90.5 37.5t90.5 -37.5t37.5 -90.5t-37.5 -90.5t-90.5 -37.5z" />
    <glyph glyph-name="btndanxuankuangzhengchang" unicode="&#xe619;" 
d="M512 736q144 0 248 -104t104 -248t-104 -248t-248 -104t-248 104t-104 248t104 248t248 104zM512 832q-187 0 -317.5 -130.5t-130.5 -317.5t130.5 -317.5t317.5 -130.5t317.5 130.5t130.5 317.5t-130.5 317.5t-317.5 130.5v0z" />
    <glyph glyph-name="btnfuxuankuangxuanzhong" unicode="&#xe600;" 
d="M960 64q0 -53 -37.5 -90.5t-90.5 -37.5h-640q-53 0 -90.5 37.5t-37.5 90.5v640q0 53 37.5 90.5t90.5 37.5h640q53 0 90.5 -37.5t37.5 -90.5v-640zM442 64q96 186 204 346q37 54 83.5 111.5t74.5 87.5l28 31l-19 64q-14 -10 -37 -28t-82.5 -70t-105 -100.5t-90 -107.5
t-66.5 -94l-22 -35l-154 147l-64 -70z" />
    <glyph glyph-name="btnfuxuankuangzhengchang" unicode="&#xe603;" 
d="M832 736q14 0 23 -9t9 -23v-640q0 -14 -9 -23t-23 -9h-640q-14 0 -23 9t-9 23v640q0 14 9 23t23 9h640zM832 832h-640q-53 0 -90.5 -37.5t-37.5 -90.5v-640q0 -53 37.5 -90.5t90.5 -37.5h640q53 0 90.5 37.5t37.5 90.5v640q0 53 -37.5 90.5t-90.5 37.5v0z" />
    <glyph glyph-name="caretdown" unicode="&#xe62c;" 
d="M805 494q0 -15 -11 -26l-256 -256q-11 -11 -26 -11t-26 11l-256 256q-11 11 -11 26t11 25.5t26 10.5h512q15 0 26 -10.5t11 -25.5z" />
    <glyph glyph-name="filter" unicode="&#xe630;" 
d="M911 727q10 -23 -8 -40l-281 -281v-424q0 -24 -23 -34q-7 -3 -14 -3q-15 0 -26 11l-146 146q-11 11 -11 26v278l-281 281q-18 17 -8 40q9 23 33 23h732q24 0 33 -23z" />
    <glyph glyph-name="angledown" unicode="&#xe631;" 
d="M797 475.5q0 -7.5 -6 -13.5l-266 -266q-6 -6 -13 -6t-13 6l-266 266q-6 6 -6 13.5t6 13.5l28 28q6 6 13.5 6t12.5 -6l225 -224l225 224q5 6 12.5 6t13.5 -6l28 -28q6 -6 6 -13.5z" />
    <glyph glyph-name="angleleft" unicode="&#xe632;" 
d="M687 585.5q0 -7.5 -5 -13.5l-225 -225l225 -224q5 -6 5 -13.5t-5 -12.5l-29 -29q-6 -6 -13 -6t-13 6l-266 266q-6 6 -6 13.5t6 13.5l266 266q6 6 13 6t13 -6l29 -29q5 -5 5 -12.5z" />
    <glyph glyph-name="angleright" unicode="&#xe633;" 
d="M669 347.5q0 -7.5 -6 -13.5l-266 -266q-6 -6 -13 -6t-13 6l-29 29q-5 5 -5 12.5t5 13.5l225 224l-225 225q-5 6 -5 13.5t5 12.5l29 29q6 6 13 6t13 -6l266 -266q6 -6 6 -13.5z" />
    <glyph glyph-name="angleup" unicode="&#xe634;" 
d="M797 219.5q0 -7.5 -6 -13.5l-28 -28q-6 -6 -13.5 -6t-12.5 6l-225 224l-225 -224q-5 -6 -12.5 -6t-13.5 6l-28 28q-6 6 -6 13.5t6 13.5l266 266q6 6 13 6t13 -6l266 -266q6 -6 6 -13.5z" />
    <glyph glyph-name="ss" unicode="&#xe636;" 
d="M127 -128h770q27 0 45.5 19t18.5 45v896q0 26 -18.5 45t-45.5 19h-770q-27 0 -45.5 -19t-18.5 -45v-896q0 -26 18.5 -45t45.5 -19v0zM127 832h770v-896h-770v896v0zM737 704h-257q-13 0 -22.5 -9.5t-9.5 -22.5t9.5 -22.5t22.5 -9.5h257q13 0 22.5 9.5t9.5 22.5t-9.5 22.5
t-22.5 9.5v0zM737 512h-450q-13 0 -22.5 -9.5t-9.5 -22.5t9.5 -22.5t22.5 -9.5h450q13 0 22.5 9.5t9.5 22.5t-9.5 22.5t-22.5 9.5v0zM737 320h-450q-13 0 -22.5 -9.5t-9.5 -22.5t9.5 -22.5t22.5 -9.5h450q13 0 22.5 9.5t9.5 22.5t-9.5 22.5t-22.5 9.5v0zM737 128h-450
q-13 0 -22.5 -9.5t-9.5 -22.5t9.5 -22.5t22.5 -9.5h450q13 0 22.5 9.5t9.5 22.5t-9.5 22.5t-22.5 9.5v0z" />
    <glyph glyph-name="close" unicode="&#xe638;" 
d="M851 140.5q0 -22.5 -16 -38.5l-77 -78q-16 -16 -39 -16t-39 16l-168 168l-168 -168q-16 -16 -39 -16t-39 16l-77 78q-16 16 -16 38.5t16 38.5l168 168l-168 168q-16 16 -16 39t16 39l77 78q16 16 39 16t39 -16l168 -168l168 168q16 16 39 16t39 -16l77 -78q16 -16 16 -39
t-16 -39l-168 -168l168 -168q16 -16 16 -38.5z" />
    <glyph glyph-name="mailreply" unicode="&#xe623;" horiz-adv-x="1025" 
d="M1024 256q0 -95 -73 -258q-1 -4 -5.5 -13.5t-8 -17t-7.5 -12.5q-7 -10 -16 -10q-8 0 -13 6t-5 14q0 5 1.5 15t1.5 14q3 39 3 70q0 58 -10 103.5t-28 79t-46 58t-60 39.5t-76 24t-88 12.5t-100 3.5h-128v-146q0 -15 -11 -26t-26 -11t-26 11l-292 293q-11 10 -11 25t11 26
l292 293q11 10 26 10t26 -10.5t11 -25.5v-146h128q407 0 500 -231q30 -76 30 -190v0z" />
    <glyph glyph-name="upload" unicode="&#xe63a;" 
d="M768 55q0 15 -11 25.5t-25.5 10.5t-25.5 -10.5t-11 -25.5t11 -26t25.5 -11t25.5 11t11 26zM914 55q0 15 -10.5 25.5t-25.5 10.5t-26 -10.5t-11 -25.5t11 -26t26 -11t25.5 11t10.5 26zM987 183v-183q0 -23 -16 -39t-38 -16h-842q-22 0 -38 16t-16 39v183q0 23 16 39t38 16
h244q12 -32 40.5 -52.5t63.5 -20.5h146q35 0 63.5 20.5t40.5 52.5h244q22 0 38 -16t16 -39v0zM802 553q-10 -23 -34 -23h-146v-256q0 -15 -11 -25.5t-26 -10.5h-146q-15 0 -26 10.5t-11 25.5v256h-146q-24 0 -34 23q-9 22 8 40l256 256q11 10 26 10t26 -10l256 -256
q17 -18 8 -40z" />
    <glyph glyph-name="widget-datatable" unicode="&#xe63d;" 
d="M922 794h-154h-102v102h-308v-102h-102h-154q-42 0 -72 -30t-30 -73v-717q0 -42 30 -72t72 -30h820q42 0 72 30t30 72v717q0 43 -30 73t-72 30zM307 742h103v103h204v-103h103v-51h-410v51zM102 -26v717h154v-51h512v51h154v-717h-820zM307 538h-102q-11 0 -18.5 -7.5
t-7.5 -18.5t7.5 -18.5t18.5 -7.5h102q11 0 18.5 7.5t7.5 18.5t-7.5 18.5t-18.5 7.5zM819 538h-358q-11 0 -18.5 -7.5t-7.5 -18.5t7.5 -18.5t18.5 -7.5h358q11 0 18.5 7.5t7.5 18.5t-7.5 18.5t-18.5 7.5zM307 435h-102q-11 0 -18.5 -7.5t-7.5 -18t7.5 -18t18.5 -7.5h102
q11 0 18.5 7.5t7.5 18t-7.5 18t-18.5 7.5zM819 435h-358q-11 0 -18.5 -7.5t-7.5 -18t7.5 -18t18.5 -7.5h358q11 0 18.5 7.5t7.5 18t-7.5 18t-18.5 7.5zM307 333h-102q-11 0 -18.5 -7.5t-7.5 -18t7.5 -18t18.5 -7.5h102q11 0 18.5 7.5t7.5 18t-7.5 18t-18.5 7.5zM819 333
h-358q-11 0 -18.5 -7.5t-7.5 -18t7.5 -18t18.5 -7.5h358q11 0 18.5 7.5t7.5 18t-7.5 18t-18.5 7.5zM307 230h-102q-11 0 -18.5 -7.5t-7.5 -18t7.5 -18t18.5 -7.5h102q11 0 18.5 7.5t7.5 18t-7.5 18t-18.5 7.5zM819 230h-358q-11 0 -18.5 -7.5t-7.5 -18t7.5 -18t18.5 -7.5
h358q11 0 18.5 7.5t7.5 18t-7.5 18t-18.5 7.5zM307 128h-102q-11 0 -18.5 -7.5t-7.5 -18t7.5 -18t18.5 -7.5h102q11 0 18.5 7.5t7.5 18t-7.5 18t-18.5 7.5zM819 128h-358q-11 0 -18.5 -7.5t-7.5 -18t7.5 -18t18.5 -7.5h358q11 0 18.5 7.5t7.5 18t-7.5 18t-18.5 7.5z" />
    <glyph glyph-name="line-chart" unicode="&#xe63e;" 
d="M842 406l174 362q9 19 2 39t-26 29.5t-39 2.5t-30 -26l-149 -312l-64 89q-15 21 -42 21t-42 -23l-98 -150l-173 134q-17 12 -38 10q-21 -3 -34 -20l-269 -348q-13 -17 -10.5 -38t19.5 -34q14 -11 31 -11q26 0 41 20l237 308l140 -107l-84 -129l-355 -164
q-19 -9 -26.5 -28.5t1.5 -39.5q14 -29 46 -29q12 0 22 4l368 170q13 6 21 18l88 135l120 -93q19 -15 43 -9t34 28l42 86l136 -190q12 -17 33 -20.5t38.5 9t21 33t-9.5 38.5zM685 316l-76 59l62 94l53 -73z" />
    <glyph glyph-name="bar-chart" unicode="&#xe63f;" 
d="M153.5 -128q-63.5 0 -108.5 45t-45 109v256q0 63 45 108t108.5 45t108.5 -45t45 -108v-256q0 -64 -45 -109t-108.5 -45zM153.5 333q-21.5 0 -36.5 -15t-15 -36v-256q0 -22 15 -37t36.5 -15t36.5 15t15 37v256q0 21 -15 36t-36.5 15zM512 -128q-64 0 -109 45t-45 109v716
q0 64 45 109t109 45t109 -45t45 -109v-716q0 -64 -45 -109t-109 -45zM512 794q-21 0 -36 -15t-15 -37v-716q0 -22 15 -37t36 -15t36 15t15 37v716q0 22 -15 37t-36 15zM870.5 -128q-63.5 0 -108.5 45t-45 109v512q0 63 45 108t108.5 45t108.5 -45t45 -108v-512
q0 -64 -45 -109t-108.5 -45zM870.5 589q-21.5 0 -36.5 -15t-15 -36v-512q0 -22 15 -37t36.5 -15t36.5 15t15 37v512q0 21 -15 36t-36.5 15z" />
    <glyph glyph-name="widget-combinedtable" unicode="&#xe635;" 
d="M333 771v-102h-256v102h256zM358 848h-307q-21 0 -36 -15t-15 -36v-154q0 -21 15 -36t36 -15h307q22 0 37 15t15 36v154q0 21 -15 36t-37 15v0zM333 464v-102h-256v102h256zM358 541h-307q-21 0 -36 -15t-15 -36v-154q0 -21 15 -36t36 -15h307q22 0 37 15t15 36v154
q0 21 -15 36t-37 15v0zM333 157v-154h-256v154h256zM358 234h-307q-21 0 -36 -15.5t-15 -36.5v-204q0 -22 15 -37t36 -15h307q22 0 37 15t15 37v204q0 21 -15 36.5t-37 15.5v0zM947 771v-768h-409v768h409zM973 848h-461q-21 0 -36 -15t-15 -36v-819q0 -22 15 -37t36 -15
h461q21 0 36 15t15 37v819q0 21 -15 36t-36 15v0zM819 694h-153q-11 0 -18.5 -7.5t-7.5 -18t7.5 -18t18.5 -7.5h153q11 0 18.5 7.5t7.5 18t-7.5 18t-18.5 7.5zM819 592h-153q-11 0 -18.5 -7.5t-7.5 -18t7.5 -18t18.5 -7.5h153q11 0 18.5 7.5t7.5 18t-7.5 18t-18.5 7.5z
M819 490h-153q-11 0 -18.5 -7.5t-7.5 -18.5t7.5 -18.5t18.5 -7.5h153q11 0 18.5 7.5t7.5 18.5t-7.5 18.5t-18.5 7.5zM819 387h-153q-11 0 -18.5 -7.5t-7.5 -18t7.5 -18t18.5 -7.5h153q11 0 18.5 7.5t7.5 18t-7.5 18t-18.5 7.5zM819 285h-153q-11 0 -18.5 -7.5t-7.5 -18
t7.5 -18t18.5 -7.5h153q11 0 18.5 7.5t7.5 18t-7.5 18t-18.5 7.5zM819 182h-153q-11 0 -18.5 -7.5t-7.5 -18t7.5 -18t18.5 -7.5h153q11 0 18.5 7.5t7.5 18t-7.5 18t-18.5 7.5z" />
    <glyph glyph-name="help" unicode="&#xe663;" 
d="M1024 384q0 139 -68.5 257t-186.5 186.5t-257 68.5t-257 -68.5t-186.5 -186.5t-68.5 -257t68.5 -257t186.5 -186.5t257 -68.5q179 0 319 111q8 7 9 17t-5.5 18.5t-16.5 9.5t-18 -6q-126 -100 -288 -100q-94 0 -179.5 36.5t-147.5 98.5t-98.5 147.5t-36.5 179.5
t36.5 179.5t98.5 147.5t147.5 98.5t179.5 36.5t179.5 -36.5t147.5 -98.5t98.5 -147.5t36.5 -179.5q0 -132 -70 -244q-5 -9 -2.5 -19t11 -15.5t18.5 -3t16 11.5q77 123 77 270zM533 205q14 0 24 -10t10 -25v-9q0 -14 -10 -24t-24 -10v0q-14 0 -24 10t-10 24v9q0 15 10 25
t24 10v0zM375 477q0 -2 1 -6t8.5 -10.5t19 -6.5t18.5 6t8 11l2 6q-2 58 24.5 85t80.5 24q73 -8 75 -81q-5 -33 -54 -85q-65 -65 -65 -117v-35q1 -3 2 -6.5t8 -9t17.5 -5.5t17.5 5t8 10l2 6v24q0 44 62 104q64 59 64 109q-5 136 -142 141q-157 3 -157 -169z" />
    <glyph glyph-name="information" unicode="&#xe690;" 
d="M1024 384q0 139 -68.5 257t-186.5 186.5t-257 68.5t-257 -68.5t-186.5 -186.5t-68.5 -257t68.5 -257t186.5 -186.5t257 -68.5q179 0 319 111q8 7 9 17t-5.5 18.5t-16.5 9.5t-18 -6q-126 -100 -288 -100q-94 0 -179.5 36.5t-147.5 98.5t-98.5 147.5t-36.5 179.5
t36.5 179.5t98.5 147.5t147.5 98.5t179.5 36.5t179.5 -36.5t147.5 -98.5t98.5 -147.5t36.5 -179.5q0 -132 -70 -244q-5 -9 -2.5 -19t11 -15.5t18.5 -3t16 11.5q77 123 77 270zM500 153q0 -10 7 -17.5t17.5 -7.5t17.5 7.5t7 17.5v318q0 11 -7 18t-17.5 7t-17.5 -7t-7 -18
v-318zM500 578q0 -11 7 -18t17.5 -7t17.5 7t7 18v43q0 11 -7 18t-17.5 7t-17.5 -7t-7 -18v-43z" />
    <glyph glyph-name="success" unicode="&#xe698;" 
d="M464 219q8 -7 18 -7t17 8l300 309q7 7 7 17.5t-7.5 17.5t-18 7t-17.5 -7l-300 -310l35 1l-181 167q-8 7 -18.5 6.5t-17.5 -8t-6.5 -18t8.5 -17.5zM1024 384q0 139 -68.5 257t-186.5 186.5t-257 68.5t-257 -68.5t-186.5 -186.5t-68.5 -257t68.5 -257t186.5 -186.5
t257 -68.5q179 0 319 111q8 7 9 17t-5.5 18.5t-16.5 9.5t-18 -6q-126 -100 -288 -100q-94 0 -179.5 36.5t-147.5 98.5t-98.5 147.5t-36.5 179.5t36.5 179.5t98.5 147.5t147.5 98.5t179.5 36.5t179.5 -36.5t147.5 -98.5t98.5 -147.5t36.5 -179.5q0 -132 -70 -244
q-5 -9 -2.5 -19t11 -15.5t18.5 -3t16 11.5q77 123 77 270z" />
    <glyph glyph-name="caret-right" unicode="&#xe66b;" 
d="M658 384q0 -15 -11 -26l-256 -256q-10 -11 -25 -11t-26 11t-11 26v512q0 15 11 26t26 11t25 -11l256 -256q11 -11 11 -26z" />
    <glyph glyph-name="right-circle" unicode="&#xe66c;" 
d="M819 477q0 16 -10 26l-52 51q-11 11 -26 11t-26 -11l-233 -232l-129 129q-11 11 -26 11t-25 -11l-52 -52q-11 -10 -11 -26q0 -15 11 -26l206 -206q11 -11 26 -11q16 0 26 11l311 310q10 10 10 26zM963 384q0 -119 -59 -220t-159.5 -160t-220 -59t-220.5 59t-160 160
t-59 220t59 220t160 160t220.5 59t220 -59t159.5 -160t59 -220z" />
    <glyph glyph-name="warning" unicode="&#xe66d;" horiz-adv-x="1026" 
d="M580 143v96q0 7 -5 11.5t-11 4.5h-97q-6 0 -11 -4.5t-5 -11.5v-96q0 -7 5 -11.5t11 -4.5h97q6 0 11 4.5t5 11.5zM579 331l9 231q0 6 -5 9q-7 6 -12 6h-111q-5 0 -12 -6q-5 -3 -5 -10l9 -230q0 -5 5 -8t12 -3h93q7 0 11.5 3t5.5 8v0zM572 800l385 -707q18 -31 -1 -63
q-8 -15 -23 -23.5t-32 -8.5h-771q-17 0 -32 8.5t-24 23.5q-18 32 -1 63l386 707q9 16 24 25t32.5 9t32.5 -9t24 -25z" />
    <glyph glyph-name="area-chart" unicode="&#xe671;" horiz-adv-x="1171" 
d="M1170 18v-73h-1170v878h73v-805h1097zM951 603l146 -512h-951v330l256 329l329 -329z" />
    <glyph glyph-name="radar-chart" unicode="&#xe672;" 
d="M512 826q6 0 8 -2l432 -346q4 -3 6.5 -11t0.5 -13l-172 -517q-2 -5 -8 -9.5t-11 -4.5h-512q-5 0 -11 4.5t-8 9.5l-172 517q-2 5 0.5 13t6.5 11l432 346q2 2 8 2zM512 877q-23 0 -40 -13l-432 -346q-17 -13 -24 -36.5t0 -43.5l173 -517q6 -20 26 -34.5t41 -14.5h512
q21 0 41 14.5t26 34.5l173 517q7 20 0 43.5t-24 36.5l-432 346q-17 13 -40 13v0zM512 672q5 0 7 -2l275 -230q5 -3 8 -13t1 -15l-90 -322q-1 -4 -6.5 -8.5t-9.5 -4.5h-370q-4 0 -9.5 4.5t-6.5 8.5l-90 321q-2 6 1 15.5t8 13.5l275 230q3 2 7 2zM512 723q-23 0 -39 -13
l-276 -230q-16 -14 -23.5 -38t-2.5 -44l91 -322q6 -20 25 -35t40 -15h370q21 0 40 15t25 35l91 321q5 20 -2.5 44.5t-23.5 37.5l-276 230q-16 14 -39 14v0zM512 691l-256 -461l614 -153z" />
    <glyph glyph-name="donut-chart" unicode="&#xe673;" 
d="M512 896v-256q106 0 181 -75t75 -181h256q0 139 -68.5 257t-186.5 186.5t-257 68.5zM205 384q0 -127 90 -217t217 -90q113 0 198.5 73t104.5 183h-52q-18 -89 -88.5 -147t-162.5 -58q-106 0 -181 75t-75 181q0 92 58 162.5t147 88.5v52q-110 -19 -183 -104.5t-73 -198.5z
M970 333q-13 -114 -76.5 -208t-164 -148t-217.5 -54q-94 0 -179 36.5t-147 98.5t-98.5 147t-36.5 179q0 117 54 217.5t148 164t208 76.5v51q-128 -12 -233.5 -82.5t-166.5 -183.5t-61 -243q0 -139 68.5 -257t186.5 -186.5t257 -68.5q130 0 243 61t183.5 166.5t82.5 233.5
h-51z" />
    <glyph glyph-name="spinner" unicode="&#xe675;" 
d="M1024 384q-2 102 -43 194q-40 93 -113 162q-72 70 -165 106q-91 36 -191 34q-99 -2 -188 -41t-157 -110q-67 -70 -102 -160q-35 -89 -33 -185t40 -182t106 -152q68 -65 155 -99q86 -33 179 -31q92 2 176 39q83 36 146 103q63 65 96 149q19 50 26 104h4q26 0 45 18.5
t19 45.5v5v0v0zM922 214q-35 -80 -99 -141q-63 -61 -144 -92t-167 -29t-164 37q-77 34 -136 95q-58 61 -88 139t-28 161t35 157.5t92 131.5q59 55 134 84t155 27t151.5 -34t125.5 -89q54 -56 82 -128q27 -72 25 -149v0v-5q0 -25 16.5 -43t40.5 -21q-9 -53 -31 -101v0z" />
    <glyph glyph-name="signout" unicode="&#xe605;" horiz-adv-x="1037" 
d="M624 440h282v-112h-282v112zM765 92l-67 90l140 185l-146 191l73 96l208 -287zM624 440v270q0 26 -11 47t-33 21h-450q-22 0 -45 -23.5t-23 -44.5v-675q0 -23 21 -34t47 -11h450q25 0 34.5 10t9.5 35v293h-337v112h337z" />
    <glyph glyph-name="function" unicode="&#xe669;" 
d="M855 428q11 11 16 11h79q4 0 7.5 3.5t3.5 8.5v90q0 4 -3.5 7.5t-7.5 3.5h-90q-4 0 -10.5 -4t-6.5 -7l-95 -102q-4 -4 -7.5 -4t-3.5 4l-51 102q-11 11 -17 11h-146q-4 0 -7.5 -3.5t-3.5 -7.5v-90q0 -5 3.5 -8.5t7.5 -3.5h90q6 0 17 -11l34 -73v-17l-101 -118
q-3 0 -8.5 -2.5t-8.5 -2.5h-79q-4 0 -7.5 -3.5t-3.5 -7.5v-90q0 -4 3.5 -8t7.5 -4h90q5 0 11 4t6 8l129 146q4 4 7.5 4t3.5 -4l73 -146q0 -4 6 -8t11 -4h90q4 0 7.5 4t3.5 8v90q0 4 -3.5 7.5t-7.5 3.5h-34q-5 0 -17 11l-56 112v17zM394 776q-52 -41 -73 -112l-28 -112h-163
q-4 0 -7.5 -3.5t-3.5 -7.5v-90q0 -5 3.5 -8.5t7.5 -3.5h135l-84 -337q-5 -18 -13.5 -31t-16 -17.5t-16 -6.5t-11.5 -1.5t-5 0.5v0h-56v-112h56q85 0 112 34q37 36 56 134l85 337h129q4 0 7.5 3.5t3.5 8.5v90q0 4 -3.5 7.5t-7.5 3.5h-101l28 106q4 12 20 29.5t30 27.5
q15 10 33.5 16t33.5 7.5t37 -0.5t34 -4t35 -7t29 -7v96l-26.5 5.5t-37 7t-38 4.5t-46 0t-44 -8t-49 -17.5t-45.5 -31.5z" />
    <glyph glyph-name="add" unicode="&#xe61d;" 
d="M928 491h-352v352q0 14 -9 23t-23 9h-64q-14 0 -23 -9t-9 -23v-352h-352q-14 0 -23 -9t-9 -23v-64q0 -15 9 -23.5t23 -8.5h352v-352q0 -15 9 -23.5t23 -8.5h64q14 0 23 8.5t9 23.5v352h352q14 0 23 8.5t9 23.5v64q0 14 -9 23t-23 9z" />
    <glyph glyph-name="download" unicode="&#xe674;" 
d="M384 192h64v320q0 29 17.5 46.5t46.5 17.5t46.5 -17.5t17.5 -46.5v-320h64q20 0 36.5 -10t21.5 -28q19 -39 -13 -71l-128 -128q-19 -19 -45 -19t-45 19l-128 128q-32 32 -13 71q5 18 21.5 28t36.5 10zM832 832h-640q-53 0 -90.5 -37.5t-37.5 -90.5v-640q0 -53 37.5 -90.5
t90.5 -37.5h64v64h-64q-29 0 -46.5 17.5t-17.5 46.5v640q0 29 17.5 46.5t46.5 17.5h640q29 0 46.5 -17.5t17.5 -46.5v-640q0 -29 -17.5 -46.5t-46.5 -17.5h-64v-64h64q53 0 90.5 37.5t37.5 90.5v640q0 53 -37.5 90.5t-90.5 37.5z" />
    <glyph glyph-name="tool" unicode="&#xe607;" 
d="M1004 638l-161 -161q-7 -7 -23 -10.5t-29 -3.5h-13q-132 16 -152 35q-8 8 -16 47.5t-12 75.5l-4 35q-3 38 16 58l161 161q1 1 2 2.5t3 5t2 6.5t-3.5 5t-11.5 2q-46 0 -80.5 -2t-89 -9t-99 -26t-74.5 -49l-17 -16q-72 -73 -80 -172.5t48 -179.5l-324 -287
q-16 -16 -28 -42.5t-17.5 -59.5t5.5 -69.5t39.5 -65t65 -39.5t69 -5.5t59 17.5t42.5 28l288 324q80 -59 180 -51.5t172 80.5l18 18q84 84 84 339q0 12 -5 14.5t-10 -1.5l-5 -4v0zM189 -35q-40 0 -68.5 28t-28.5 68t28.5 68t68.5 28t68 -28t28 -68t-28 -68t-68 -28v0z
M189 -35z" />
    <glyph glyph-name="enter-in" unicode="&#xe652;" 
d="M488 591q18 7 37 3.5t32 -17.5l128 -128q19 -19 19 -45.5t-19 -45.5l-128 -127q-13 -14 -32 -18t-37 3.5t-29 23.5t-11 36v44h-320q-26 0 -45 18.5t-19 45.5t19 45.5t45 18.5h320v84q0 19 11 35t29 24v0zM832 832h-640q-53 0 -90.5 -37.5t-37.5 -90.5v-128h64v128
q0 26 19 45t45 19h640q26 0 45 -19t19 -45v-640q0 -26 -19 -45t-45 -19h-640q-26 0 -45 19t-19 45v128h-64v-128q0 -53 37.5 -90.5t90.5 -37.5h640q53 0 90.5 37.5t37.5 90.5v640q0 53 -37.5 90.5t-90.5 37.5v0z" />
    <glyph glyph-name="app-design" unicode="&#xe653;" 
d="M238 478l-84 -158l162 34l-78 124v0zM881 708l-79 124l-52 -32l78 -123l53 31v0zM697 769l-406 -259l78 -124l415 252zM64 256h896v-320h-896v320zM128 0h768v192h-768v-192zM192 192h64v-64h-64v64zM320 192h64v-128h-64v128zM448 192h64v-64h-64v64zM576 192h64v-128
h-64v128zM704 192h64v-64h-64v64z" />
    <glyph glyph-name="info" unicode="&#xe654;" 
d="M2 384q0 -104 40.5 -198t109 -162.5t162.5 -109t198 -40.5t198 40.5t162.5 109t109 162.5t40.5 198t-40.5 198t-109 162.5t-162.5 109t-198 40.5t-198 -40.5t-162.5 -109t-109 -162.5t-40.5 -198zM455 497h114v-396h-114v396zM455 667h114v-113h-114v113z" />
    <glyph glyph-name="query" unicode="&#xe655;" 
d="M585 72v125q0 9 -6 15t-15 6h-125q-9 0 -15 -6t-6 -15v-125q0 -9 6 -15t15 -6h125q9 0 15 6t6 15zM751 509q0 57 -36 106t-90 75.5t-110 26.5q-158 0 -242 -139q-9 -15 6 -27l85 -65q5 -4 13 -4q10 0 16 8q35 44 56 60q22 15 56 15q31 0 55.5 -16.5t24.5 -38.5
q0 -25 -13 -39.5t-44 -29.5q-41 -18 -75.5 -56t-34.5 -82v-23q0 -9 6 -15t15 -6h125q9 0 15 6t6 15q0 12 14 32t35 32t32 19t30 23t29 31t18 39t8 53v0zM1001 384q0 -136 -67 -250.5t-182 -181.5t-250.5 -67t-250.5 67t-182 181.5t-67 250.5t67 250.5t182 181.5t250.5 67
t250.5 -67t182 -181.5t67 -250.5z" />
    <glyph glyph-name="ok" unicode="&#xe656;" 
d="M1003 715q-22 21 -52 21t-52 -21l-490 -491l-284 284q-22 21 -52 21t-51.5 -21.5t-21.5 -51.5t21 -52l333 -332l6 -6v0q21 -19 49 -19t48 19v0l6 6l540 539q21 22 21 52t-21 52v0z" />
    <glyph glyph-name="clear" unicode="&#xe65b;" 
d="M937 135q-11 102 -19 147q21 8 31 27q19 31 1 67l-85 170q-13 26 -41 43t-57 17h-107v206q0 35 -25 59.5t-60 24.5h-86q-35 0 -59.5 -24.5t-24.5 -59.5v-206h-113q-29 0 -56 -17q-29 -17 -42 -43l-85 -170q-18 -36 1 -67q18 -31 57 -33q0 -61 -10.5 -107t-28.5 -60
q-71 -58 -63 -130q3 -32 23 -59t51 -43l9 -4h711l6 2q26 9 48 30q48 46 38 115q-5 37 -14 115v0zM267 506q2 5 10 9.5t15 4.5h195v290h2h86h2v-290h190q7 0 15 -4.5t10 -9.5l72 -144h-669l72 144v0zM859 -30q-6 -7 -15 -11h-37q11 47 24 127v0q4 18 5 33l-81 10
q-1 -4 -5 -26q-14 -66 -69 -144h-25q2 11 5 24q9 44 19 103v0q4 18 5 33l-82 10v-0.5v-2t-0.5 -3t-0.5 -4t-0.5 -5t-1 -5.5t-1.5 -6q-14 -66 -70 -144h-24q2 11 5 24q10 43 19 103q4 18 5 33l-81 10l-0.5 -1t-0.5 -3.5t-0.5 -5.5t-1.5 -7.5t-2 -8.5q-14 -65 -69 -144h-4
q3 11 6 24q9 43 19 103q4 18 5 33l-82 10q-1 -6 -4 -26q-15 -65 -70 -144h-81q-20 13 -22 30q-2 24 33 52q49 40 64 142q6 41 6 91h587q8 -43 19 -149q9 -79 14 -118q4 -23 -10 -37v0z" />
    <glyph glyph-name="gavel" unicode="&#xe662;" 
d="M1012 18q0 -30 -21 -51l-61 -62q-22 -21 -52 -21q-31 0 -52 21l-207 208q-22 21 -22 52q0 30 25 54l-147 147l-72 -72q-8 -8 -19 -8t-19 8l7 -7t7 -7.5t5.5 -6.5t5.5 -8t3.5 -7.5t3.5 -9.5t1 -10q0 -22 -16 -39q-2 -2 -9.5 -10.5t-11 -11.5t-11 -9.5t-12.5 -9t-12.5 -5
t-14.5 -2.5q-23 0 -39 16l-233 233q-16 16 -16 39q0 7 2.5 14.5t5 12.5t9 12.5t9.5 11t11.5 11t10.5 9.5q17 16 39 16q5 0 10 -1t9.5 -3.5t7.5 -3.5t8 -5.5t6.5 -5.5t7.5 -7l7 -7q-8 8 -8 19t8 19l199 199q8 8 19.5 8t19.5 -8q-2 1 -8 7t-7 7.5t-5.5 6.5t-5.5 8t-3.5 8
t-3.5 9.5t-1 9.5q0 22 16 39q2 2 9.5 10.5t11 11.5t11 9.5t12.5 9t12.5 5t14.5 2.5q23 0 39 -16l233 -233q16 -16 16 -39q0 -7 -2.5 -14.5t-5 -12.5t-9 -12.5t-9.5 -10.5t-11.5 -11t-10.5 -10q-17 -16 -39 -16q-5 0 -10 1t-9.5 3.5t-7.5 3.5t-8 5.5t-6.5 5.5t-7 7t-7.5 8
q8 -8 8 -19.5t-8 -19.5l-72 -72l147 -147q24 25 54 25t52 -21l208 -208q21 -22 21 -52z" />
    <glyph glyph-name="tag" unicode="&#xe676;" horiz-adv-x="1025" 
d="M256 640q0 30 -21.5 51.5t-51.5 21.5t-51.5 -21.5t-21.5 -51.5t21.5 -51.5t51.5 -21.5t51.5 21.5t21.5 51.5zM866 311q0 -30 -21 -52l-281 -281q-22 -21 -52 -21t-51 21l-409 409q-22 22 -37 58.5t-15 66.5v238q0 29 21.5 51t51.5 22h238q30 0 66.5 -15t58.5 -37
l409 -408q21 -22 21 -52v0z" />
    <glyph glyph-name="clock" unicode="&#xe677;" horiz-adv-x="1025" 
d="M597 585v-256q0 -8 -5 -13t-13 -5h-183q-8 0 -13 5t-5 13v37q0 8 5 13t13 5h128v201q0 8 5.5 13t13.5 5h36q8 0 13 -5t5 -13v0zM835 384q0 85 -41.5 156.5t-113 113t-156 41.5t-156 -42t-113.5 -113t-42 -156t42 -156t113.5 -113t156 -42t156 41.5t113 113t41.5 156.5z
M963 384q0 -119 -59 -220t-159.5 -160t-220 -59t-220.5 59t-160 160t-59 220t59 220t160 160t220.5 59t220 -59t159.5 -160t59 -220z" />
    <glyph glyph-name="comment" unicode="&#xe678;" 
d="M1024 384q0 -99 -68.5 -183.5t-186.5 -133.5t-257 -49q-40 0 -83 5q-113 -100 -263 -138q-28 -8 -65 -13q-10 -1 -17.5 5.5t-9.5 16.5v0q-2 3 -0.5 7.5t1 5.5t2.5 5l4 6l4 4l4 6q4 4 18 19t20 21.5t17.5 23t18.5 29.5t15.5 33.5t14.5 43.5q-89 51 -141 125.5t-52 160.5
q0 74 40.5 142t109 117t163.5 78t199 29q139 0 257 -49t186.5 -133t68.5 -184v0z" />
    <glyph glyph-name="desc" unicode="&#xe67a;" 
d="M769 731q0 36 -25 66t-59 30q-30 0 -47.5 -21t-17.5 -53.5t21 -54t60 -21.5q28 0 48 15t20 39v0zM421 73q0 -7 -6 -14l-182 -182q-6 -5 -14 -5q-6 0 -13 5l-182 183q-9 9 -5 20q5 12 18 12h109v786q0 8 5.5 13t13.5 5h109q8 0 13 -5t5 -13v-786h110q8 0 13 -5.5t5 -13.5
h1zM832 -63v-65h-268v65h95v247q0 4 0.5 11t0.5 10v9h-1l-4 -7q-5 -8 -15 -18l-36 -33l-46 49l109 106h71v-374h94v0zM849 698q0 -36 -7.5 -70t-23.5 -65t-38.5 -54.5t-56 -37.5t-73.5 -14q-35 0 -61 9q-14 5 -24 9l22 64q9 -4 18 -6q21 -7 43 -7q48 0 76.5 33t37.5 83h-1
q-12 -13 -35 -21t-48 -8q-61 0 -99 41t-38 98q0 60 41 102t103 42q71 0 117.5 -54t46.5 -144v0z" />
    <glyph glyph-name="qrcode" unicode="&#xe67c;" 
d="M315 238v-73h-73v73h73zM315 677v-74h-73v74h73zM754 677v-74h-73v74h73zM169 92h220v219h-220v-219zM169 530h220v220h-220v-220zM608 530h219v220h-219v-220zM462 384v-366h-366v366h366zM754 91v-73h-73v73h73zM901 91v-73h-74v73h74zM901 384v-219h-220v73h-73v-220
h-73v366h219v-73h73v73h74v0zM462 823v-366h-366v366h366zM901 823v-366h-366v366h366z" />
    <glyph glyph-name="home" unicode="&#xe67d;" 
d="M172 318h227v-329q0 -26 -19 -44.5t-46 -18.5h-98q-26 0 -45 18.5t-19 44.5v329zM399 318h226v-112h-226v112zM625 318h227v-329q0 -26 -19 -44.5t-45 -18.5h-98q-27 0 -46 18.5t-19 44.5v329zM421 788q38 38 91 38t91 -38l385 -380q37 -37 26 -63.5t-63 -26.5h-878
q-53 0 -63.5 26.5t27.5 63.5z" />
    <glyph glyph-name="bold" unicode="&#xe67e;" 
d="M427 27q42 -18 80 -18q215 0 215 191q0 65 -24 103q-15 25 -35 42t-38.5 26.5t-46 14.5t-48 6t-53.5 1q-42 0 -58 -6q0 -30 -0.5 -90.5t-0.5 -90.5q0 -4 -0.5 -38t0 -55.5t2.5 -48t7 -37.5v0zM419 453q24 -4 62 -4q47 0 82 7.5t63 25.5t42.5 51t14.5 81q0 40 -16.5 70
t-45 47t-62 25t-70.5 8q-29 0 -75 -7q0 -29 2.5 -86.5t2.5 -87.5q0 -15 -0.5 -45.5t-0.5 -44.5q0 -27 1 -40v0zM110 -55l1 54q8 2 48 9t61 15q4 7 7 15.5t5 19.5t3.5 19t1.5 21v19v38q0 561 -12 586q-3 4 -13 8t-25.5 6.5t-28.5 4t-27.5 2.5t-17.5 1l-2 48q56 1 194 6.5
t213 5.5q13 0 39 -0.5t39 -0.5q40 0 78 -7.5t73.5 -24t61.5 -40.5t42 -59.5t16 -78.5q0 -30 -9 -54.5t-22 -41t-37 -33t-42 -25.5t-48 -23q88 -20 146.5 -76.5t58.5 -141.5q0 -58 -20 -103t-53.5 -74.5t-78.5 -49t-93 -27.5t-101 -8q-25 0 -75.5 1.5t-75.5 1.5
q-60 0 -175 -6t-132 -7v0z" />
    <glyph glyph-name="chain-broken" unicode="&#xe67f;" 
d="M287 170l-146 -147q-6 -5 -13 -5t-13 5q-5 6 -5 13.5t5 13.5l146 146q6 5 13.5 5t12.5 -5q6 -6 6 -13.5t-6 -12.5zM384 146v-183q0 -8 -5 -13t-13 -5t-13.5 5t-5.5 13v183q0 8 5.5 13.5t13.5 5.5t13 -5.5t5 -13.5zM256 274q0 -8 -5 -13t-13 -5h-183q-8 0 -13 5t-5 13
t5 13.5t13 5.5h183q8 0 13 -5.5t5 -13.5zM978 201q0 -68 -48 -116l-84 -83q-48 -48 -116 -48q-69 0 -117 49l-191 191q-12 12 -24 32l137 11l156 -157q15 -15 38.5 -15.5t39.5 14.5l84 84q16 16 16 38q0 23 -16 39l-157 157l10 137q20 -12 32 -24l192 -192q48 -49 48 -117v0
zM626 615l-137 -10l-156 156q-16 16 -39 16q-22 0 -39 -15l-84 -84q-16 -16 -16 -38q0 -23 16 -39l157 -156l-10 -138q-20 12 -32 24l-192 192q-48 50 -48 117q0 69 48 116l84 83q48 48 116 48q69 0 117 -49l191 -191q12 -12 24 -32v0zM987 567q0 -8 -5 -13t-13 -5h-183
q-8 0 -13 5t-5 13t5 13t13 5h183q8 0 13 -5t5 -13zM677 878v-183q0 -8 -5.5 -13t-13.5 -5t-13 5t-5 13v183q0 8 5 13t13 5t13.5 -5t5.5 -13zM909 791l-146 -146q-6 -5 -13 -5t-13 5q-6 6 -6 13.5t6 12.5l146 147q6 5 13 5t13 -5q5 -6 5 -13.5t-5 -13.5z" />
    <glyph glyph-name="chain" unicode="&#xe680;" 
d="M869 201q0 23 -16 39l-119 119q-16 16 -39 16q-24 0 -41 -18q1 -2 10.5 -11t12.5 -12.5t8.5 -11t7.5 -14.5t2 -15q0 -23 -16 -39t-39 -16q-9 0 -16 2t-14.5 7.5t-11 8.5t-12 12t-10.5 11q-19 -18 -19 -42q0 -23 16 -39l118 -118q15 -15 39 -15q23 0 39 14l84 84
q16 16 16 38zM467 604q0 23 -16 39l-118 118q-16 16 -39 16q-22 0 -39 -15l-84 -84q-16 -16 -16 -38q0 -23 16 -39l119 -119q16 -15 39 -15q24 0 41 18q-1 1 -10.5 10t-12.5 12.5t-8.5 11t-7.5 14.5t-2 16q0 22 16 38t39 16q9 0 16 -2t14.5 -7t11 -8.5t12 -12.5t10.5 -11
q19 18 19 42zM978 201.5q0 -68.5 -48 -116.5l-84 -83q-48 -48 -116 -48q-69 0 -117 49l-118 118q-47 48 -47 116q0 70 50 120l-50 50q-49 -50 -119 -50q-68 0 -116 48l-119 118q-48 48 -48 117t48 116l84 83q48 48 116 48q69 0 117 -49l118 -118q47 -47 47 -116
q0 -70 -50 -119l50 -51q49 51 119 51q68 0 116 -48l119 -119q48 -48 48 -116.5z" />
    <glyph glyph-name="italic" unicode="&#xe681;" 
d="M219 -54l10 49q4 1 47 12t63 22q16 20 24 57q0 4 35 165.5t65.5 310.5t29.5 169v15q-14 7 -31 10t-39.5 4.5t-33.5 3.5l11 59q19 -1 68.5 -3.5t85.5 -4t69 -1.5q27 0 56 1.5t69.5 4t56.5 3.5q-3 -22 -11 -51q-17 -6 -58 -16.5t-62 -18.5q-5 -11 -8.5 -24.5t-5 -23t-4 -26
t-3.5 -24.5q-16 -84 -50.5 -239t-44.5 -203q-1 -6 -7 -34t-11.5 -51t-9.5 -47.5t-3 -33.5v-10q10 -2 106 -18q-2 -25 -9 -56q-6 0 -18.5 -1t-18.5 -1q-17 0 -50 6t-49 6q-79 1 -118 1q-29 0 -81.5 -5.5t-69.5 -6.5v0z" />
    <glyph glyph-name="list-ol" unicode="&#xe682;" horiz-adv-x="1025" 
d="M218 -30q0 -45 -31.5 -71.5t-77.5 -26.5q-60 0 -98 38l32 50q28 -26 61 -26q17 0 29 8.5t12 24.5q0 36 -60 32l-15 32q5 6 19 25t24 30.5t21 22.5v0q-9 0 -27.5 -0.5t-27.5 -0.5v-30h-61v87h191v-51l-55 -65q29 -7 46.5 -28.5t17.5 -50.5zM219 329v-91h-207q-3 20 -3 31
q0 29 13 53t32 38.5t38 27t32.5 25t13.5 25.5q0 15 -8.5 22.5t-22.5 7.5q-26 0 -46 -33l-49 34q14 29 41 45t60 16q42 0 70.5 -23.5t28.5 -64.5q0 -28 -19.5 -52t-43 -37t-43 -28.5t-20.5 -30.5h73v35h60v0zM1024 146v-109q0 -8 -5.5 -13.5t-12.5 -5.5h-695q-8 0 -13 5.5
t-5 13.5v109q0 8 5 13.5t13 5.5h695q7 0 12.5 -5.5t5.5 -13.5zM219 660v-57h-191v57h61q0 23 0.5 69.5t0.5 69.5v7h-1q-5 -10 -29 -31l-41 43l78 73h61v-231h61v0zM1024 439v-110q0 -7 -5.5 -12.5t-12.5 -5.5h-695q-8 0 -13 5.5t-5 12.5v110q0 8 5 13t13 5h695
q7 0 12.5 -5.5t5.5 -12.5zM1024 731v-109q0 -8 -5.5 -13.5t-12.5 -5.5h-695q-8 0 -13 5.5t-5 13.5v109q0 8 5 13.5t13 5.5h695q7 0 12.5 -5.5t5.5 -13.5z" />
    <glyph glyph-name="list-ul" unicode="&#xe683;" horiz-adv-x="1025" 
d="M219 91.5q0 -45.5 -32 -77.5t-77.5 -32t-77.5 32t-32 77.5t32 77.5t77.5 32t77.5 -32t32 -77.5zM219 384q0 -46 -32 -78t-77.5 -32t-77.5 32t-32 78t32 78t77.5 32t77.5 -32t32 -78zM1024 146v-109q0 -8 -5.5 -13.5t-12.5 -5.5h-695q-8 0 -13 5.5t-5 13.5v109q0 8 5 13.5
t13 5.5h695q7 0 12.5 -5.5t5.5 -13.5zM219 676.5q0 -45.5 -32 -77.5t-77.5 -32t-77.5 32t-32 77.5t32 77.5t77.5 32t77.5 -32t32 -77.5zM1024 439v-110q0 -7 -5.5 -12.5t-12.5 -5.5h-695q-8 0 -13 5.5t-5 12.5v110q0 7 5 12.5t13 5.5h695q7 0 12.5 -5.5t5.5 -12.5zM1024 731
v-109q0 -8 -5.5 -13.5t-12.5 -5.5h-695q-8 0 -13 5.5t-5 13.5v109q0 8 5 13.5t13 5.5h695q7 0 12.5 -5.5t5.5 -13.5z" />
    <glyph glyph-name="underline" unicode="&#xe684;" 
d="M27 769q-21 1 -25 2l-2 50q7 1 23 1q34 0 64 -3q75 -4 95 -4q49 0 96 2q66 2 83 3q32 0 49 1v-8l1 -36v-6q-34 -5 -71 -5q-34 0 -45 -14q-8 -8 -8 -75q0 -8 0.5 -19t0.5 -15l1 -130l8 -160q3 -71 29 -116q20 -34 55 -52q50 -27 101 -27q59 0 109 16q32 10 56 29
q28 20 38 36q20 32 30 66q12 41 12 130q0 46 -2 74t-6.5 70t-7.5 91l-2 33q-3 39 -14 51q-20 20 -44 19l-57 -1l-8 2l1 49h48l117 -6q43 -2 112 6l10 -1q4 -22 4 -29q0 -4 -3 -18q-25 -7 -48 -8q-41 -6 -45 -9q-8 -9 -8 -24q0 -4 0.5 -15.5t0.5 -17.5q5 -11 13 -226
q3 -112 -9 -174q-8 -43 -23 -70q-22 -37 -64 -70q-43 -32 -104 -51q-62 -19 -146 -19q-95 0 -162 27q-68 27 -102 69q-35 44 -48 112q-9 46 -9 135v191q0 107 -10 121q-14 21 -84 23v0zM878 -37v37q0 8 -5.5 13t-13.5 5h-841q-8 0 -13 -5t-5 -13v-37q0 -8 5 -13t13 -5h841
q8 0 13.5 5t5.5 13z" />
    <glyph glyph-name="image" unicode="&#xe670;" horiz-adv-x="1098" 
d="M366 567q0 -46 -32 -78t-78 -32t-78 32t-32 78t32 78t78 32t78 -32t32 -78zM951 347v-256h-805v110l183 183l92 -91l292 292zM1006 750h-915q-7 0 -12.5 -5.5t-5.5 -13.5v-694q0 -8 5.5 -13.5t12.5 -5.5h915q7 0 12.5 5.5t5.5 13.5v694q0 8 -5.5 13.5t-12.5 5.5z
M1097 731v-694q0 -38 -27 -65t-64 -27h-915q-37 0 -64 27t-27 65v694q0 38 27 65t64 27h915q37 0 64 -27t27 -65z" />
    <glyph glyph-name="page-design" unicode="&#xe686;" 
d="M394 187l-150 -91q-11 -4 -18 3t-2 17l91 151l79 -80v0zM659 630l99 -98l-315 -315q-55 55 -98 99l314 314v0zM758 729q8 8 19.5 8t19.5 -8l59 -59q8 -8 8 -19.5t-8 -20.5l-59 -59l-97 100l58 58v0zM291 326l-120 -244q-8 -21 5.5 -34.5t33.5 -4.5l244 121q18 3 28 14
l433 433q16 16 16 39t-16 40l-98 98q-17 16 -40 16t-39 -16l-433 -433q-10 -11 -14 -29v0zM904 496v-448q0 -23 -19 -39.5t-42 -16.5h-668q-23 0 -39 16t-16 39v668q0 24 16.5 42.5t39.5 18.5h448v56h-448q-46 0 -79 -35t-33 -82v-668q0 -46 32.5 -78.5t78.5 -32.5h668
q46 0 81.5 33t35.5 79v448h-56zM663.5 77q-11.5 0 -20 8.5t-8.5 19.5v64q0 12 8.5 20t20 8t19.5 -8t8 -20v-64q0 -11 -8 -19.5t-19.5 -8.5zM786 77q-12 0 -20 8t-8 20v224q0 12 8 20t20 8q11 0 19.5 -8t8.5 -20v-224q0 -11 -8.5 -19.5t-19.5 -8.5zM194 508v135h56v-135h-56z
M194 699h194v-56h-194v56z" />
    <glyph glyph-name="data-manager" unicode="&#xe688;" 
d="M260 216h56v-56h-56v56zM288 104q35 0 59.5 24.5t24.5 59.5t-24.5 59.5t-59.5 24.5t-59.5 -24.5t-24.5 -59.5t24.5 -59.5t59.5 -24.5v0zM484 216h56v-56h-56v56zM512 104q35 0 59.5 24.5t24.5 59.5t-24.5 59.5t-59.5 24.5t-59.5 -24.5t-24.5 -59.5t24.5 -59.5t59.5 -24.5
v0zM260 440h56v-56h-56v56zM288 328q35 0 59.5 24.5t24.5 59.5t-24.5 59.5t-59.5 24.5t-59.5 -24.5t-24.5 -59.5t24.5 -59.5t59.5 -24.5v0zM484 440h56v-56h-56v56zM512 328q35 0 59.5 24.5t24.5 59.5t-24.5 59.5t-59.5 24.5t-59.5 -24.5t-24.5 -59.5t24.5 -59.5t59.5 -24.5
v0zM876 664h-728v56q0 23 16.5 39.5t39.5 16.5h616q23 0 39.5 -16.5t16.5 -39.5v-56v0zM876 48q0 -23 -16.5 -39.5t-39.5 -16.5h-616q-23 0 -39.5 16.5t-16.5 39.5v560h728v-560v0zM820 832h-616q-46 0 -79 -33t-33 -79v-672q0 -46 33 -79t79 -33h616q46 0 79 33t33 79v672
q0 46 -33 79t-79 33v0zM708 216h56v-56h-56v56zM736 104q35 0 59.5 24.5t24.5 59.5t-24.5 59.5t-59.5 24.5t-59.5 -24.5t-24.5 -59.5t24.5 -59.5t59.5 -24.5v0zM708 440h56v-56h-56v56zM736 328q35 0 59.5 24.5t24.5 59.5t-24.5 59.5t-59.5 24.5t-59.5 -24.5t-24.5 -59.5
t24.5 -59.5t59.5 -24.5v0z" />
    <glyph glyph-name="share" unicode="&#xe689;" 
d="M764 -8v0q46 0 79 33t33 79t-33 79t-79 33t-79 -33t-33 -79t33 -79t79 -33v0zM764 -64q-70 0 -119 49t-49 119t49 119t119 49t119 -49t49 -119t-49 -119t-119 -49zM764 552q46 0 79 33t33 79t-33 79t-79 33t-79 -33t-33 -79t33 -79t79 -33zM764 496q-70 0 -119 49
t-49 119t49 119t119 49t119 -49t49 -119t-49 -119t-119 -49zM260 272q46 0 79 33t33 79t-33 79t-79 33t-79 -33t-33 -79t33 -79t79 -33zM377 264q-49 -48 -117 -48q-70 0 -119 49t-49 119t49 119t119 49q68 0 117 -48v0l234 135l28 -48l-229 -132q18 -35 18 -75t-18 -75
l229 -132l-28 -48z" />
    <glyph glyph-name="back" unicode="&#xe68a;" 
d="M101 438v0l6 5l405 -351v-49l-20 -9l-36 32v135v56h56q215 0 376 -125q36 -28 65 -58q5 -45 7 -84l-9 -2q-21 30 -52 59l-2 20q-13 113 -46 206q-99 280 -339 280h-56v56v136l36 32l20 -9v-49l-405 -350l-6 5v64zM568 198v3l-3 -3q-26 3 -53 3v-183l-448 388l448 387
v-184q71 0 132.5 -22t104.5 -57.5t78 -85.5t56 -99t37 -106t23.5 -99.5t11.5 -85.5t4.5 -57.5t0.5 -21.5q-5 8 -14.5 21.5t-45 49t-76.5 64t-110.5 55t-145.5 33.5v0z" />
    <glyph glyph-name="process" unicode="&#xe68b;" 
d="M316 776v0v-224v0h392v0v224v0h-392v0v0zM260 776q0 23 16.5 39.5t39.5 16.5h392q23 0 39.5 -16.5t16.5 -39.5v-224q0 -23 -16.5 -39.5t-39.5 -16.5h-392q-23 0 -39.5 16.5t-16.5 39.5v224zM120 188v-196v0h280v0v196v0h-280v0zM64 188q0 23 16.5 39.5t39.5 16.5h280
q23 0 39.5 -16.5t16.5 -39.5v-196q0 -23 -16.5 -39.5t-39.5 -16.5h-280q-23 0 -39.5 16.5t-16.5 39.5v196zM624 188v-196v0h280v0v196v0h-280v0zM736 328h-448v-84h-56v140h56v-56v0h-56v56h518h42v-140h-56v84zM568 188q0 23 16.5 39.5t39.5 16.5h280q23 0 39.5 -16.5
t16.5 -39.5v-196q0 -23 -16.5 -39.5t-39.5 -16.5h-280q-23 0 -39.5 16.5t-16.5 39.5v196zM484 496h56v-112h-56v112z" />
    <glyph glyph-name="query-setting" unicode="&#xe68d;" 
d="M960 128v64h-75q-1 0 -3.5 7.5l-6 18t-6.5 15.5l57 58l-53 53l-62 -56q-5 3 -16 6.5t-19 6t-8 3.5v80h-64v-80q0 -1 -7 -3.5t-16.5 -6t-14.5 -6.5l-57 57l-53 -53l57 -59q-3 -5 -6.5 -15.5l-6 -18t-3.5 -7.5h-85v-64h85q1 0 3.5 -7.5l6 -18t6.5 -15.5l-57 -58l53 -53
l57 56q5 -3 14.5 -6.5t16.5 -6t7 -3.5v-80h64v80q0 1 8 3.5t19 6t16 6.5l59 -57l54 53l-56 59q3 5 6.5 15.5t6.5 18t4 7.5h75v0zM666 160q0 31 22 53t53 22t53 -22t22 -53t-22 -53t-53 -22t-53 22t-22 53v0zM432 272q-52 33 -87.5 92t-35.5 127q0 102 75 174.5t178 72.5
t176 -68t73 -169q0 -58 -6 -58h92q7 0 7 58q0 91 -45 167.5t-122.5 120t-168.5 43.5t-168.5 -45.5t-122.5 -123.5t-45 -169q0 -133 89 -229l-257 -258l63 -64l252 263q7 -5 21.5 -11.5t23 -11t8.5 -8.5v97v0z" />
    <glyph glyph-name="page-view" unicode="&#xe68e;" 
d="M896 310v0v0q40 -52 64 -118q-42 -115 -128.5 -185.5t-191.5 -70.5t-191.5 70.5t-128.5 185.5q42 115 128.5 185.5t191.5 70.5q74 0 140.5 -36.5t115.5 -101.5v138h-64v128h-159q-13 0 -24 9q-9 9 -9 22v161h-512v-768h192v-64h-192q-27 0 -45.5 19t-18.5 46v767
q0 26 19 45t45 19h575l193 -194v-328zM797 640l-93 84v-84h93zM640 0q80 0 136 56t56 136t-56 136t-136 56t-136 -56t-56 -136t56 -136t136 -56zM640 96q40 0 68 28t28 68t-28 68t-68 28t-68 -28t-28 -68t28 -68t68 -28z" />
    <glyph glyph-name="icon-color" unicode="&#xe610;" 
d="M938.5 810.5q-34.5 34.5 -83 34.5t-82.5 -35l-139 -138l-38 38q-15 15 -36 15t-36.5 -15t-15.5 -36t16 -36l38 -38l-425 -425q-32 -32 -34 -75q-1 -15 -7 -55q-1 -6 -5 -10v0l-32 -32q-8 -7 -8 -18t8 -18l36 -36q7 -8 18 -8t18 8l32 32q4 4 10 5q40 6 55 7q43 2 75 34
l425 425l38 -39q15 -15 36 -15t36 15.5t15 36.5t-15 36l-126 127l99 -78l127 128q35 34 35 82.5t-34.5 83zM666 458l-210 -210q-8 -8 -18.5 -8t-18.5 8l-33 34q-8 7 -19 7t-18 -8l-7 -6v0l-150 -151q-7 -6 -11.5 -1t1.5 11l244 244v0l160 160q8 8 18.5 8t18.5 -8l43 -43
q8 -8 8 -18.5t-8 -18.5z" />
    <glyph glyph-name="newtab" unicode="&#xe68f;" 
d="M192 832v-768h768v768h-768zM896 128h-640v640h640v-640zM128 0v672l-64 64v-800h800l-64 64h-672zM352 640l160 -160l-192 -192l96 -96l192 192l160 -160v416h-416z" />
    <glyph glyph-name="talk" unicode="&#xe692;" 
d="M560 482v193h-96v-193h96zM560 286v98h-96v-98h96zM901 869q39 0 67.5 -28.5t28.5 -67.5v-582q0 -39 -28.5 -68.5t-67.5 -29.5h-680l-194 -194v874q0 39 28.5 67.5t67.5 28.5h778v0z" />
    <glyph glyph-name="tags" unicode="&#xe63b;" horiz-adv-x="1089" 
d="M256 640q0 30 -21.5 51.5t-51.5 21.5t-51.5 -21.5t-21.5 -51.5t21.5 -51.5t51.5 -21.5t51.5 21.5t21.5 51.5zM866 311q0 -30 -21 -52l-281 -281q-22 -21 -52 -21t-51 21l-409 409q-22 22 -37 58.5t-15 66.5v238q0 29 21.5 51t51.5 22h238q30 0 66.5 -15t58.5 -37
l409 -408q21 -22 21 -52v0zM1085 311q0 -30 -21 -52l-281 -281q-22 -21 -52 -21q-20 0 -33 8t-31 26l269 268q21 22 21 52t-21 52l-409 408q-21 22 -57.5 37t-67.5 15h128q31 0 67.5 -15t57.5 -37l409 -408q21 -22 21 -52v0z" />
    <glyph glyph-name="vedio" unicode="&#xe64b;" 
d="M384 672q0 -66 47 -113t113 -47t113 47t47 113t-47 113t-113 47t-113 -47t-47 -113v0zM0 672q0 -66 47 -113t113 -47t113 47t47 113t-47 113t-113 47t-113 -47t-47 -113v0zM768 448q0 26 -19 45t-45 19h-640q-26 0 -45 -19t-19 -45v-448q0 -26 19 -45t45 -19h640
q26 0 45 19t19 45v160l256 -224v576l-256 -224v160z" />
    <glyph glyph-name="department" unicode="&#xe65d;" 
d="M393 670.5q0 -49.5 35 -84.5t84 -35t84 35t35 84.5t-35 84.5t-84 35t-84 -35t-35 -84.5zM214 342h596v-89h60v149h-328v89h-60v-89h-328v-149h60v89zM64 74q0 -50 35 -85t84.5 -35t84.5 35t35 85v0q0 49 -35 84t-84.5 35t-84.5 -35t-35 -84v0zM721 73.5q0 -49.5 35 -84.5
t84.5 -35t84.5 35t35 84.5t-35 84.5t-84.5 35t-84.5 -35t-35 -84.5zM393 73.5q0 -49.5 35 -84.5t84 -35t84 35t35 84.5t-35 84.5t-84 35t-84 -35t-35 -84.5z" />
    <glyph glyph-name="setting" unicode="&#xe697;" 
d="M886 201l-30 -52q-6 -11 -18 -14t-22 3l-82 48q-66 -75 -163 -95v-65q0 -13 -8.5 -21.5t-20.5 -8.5h-60q-12 0 -20.5 8.5t-8.5 21.5v65q-97 20 -163 95l-82 -48q-10 -6 -22 -3t-18 14l-30 52q-6 11 -3 22.5t14 18.5l83 48q-16 47 -16 94t16 94l-83 48q-11 7 -14 18.5
t3 22.5l30 52q6 11 18 14t22 -3l82 -48q66 75 163 95v65q0 13 8.5 21.5t20.5 8.5h60q12 0 20.5 -8.5t8.5 -21.5v-65q97 -20 163 -95l82 48q10 6 22 3t18 -14l30 -52q6 -11 3 -22.5t-14 -18.5l-83 -48q16 -47 16 -94t-16 -94l83 -48q11 -7 14 -18.5t-3 -22.5v0zM930 278
l-69 41q6 35 6 65t-6 65l69 41q22 12 28 36t-6 45l-59 104q-12 21 -36 27.5t-45 -5.5l-70 -41q-52 44 -112 66v50q0 25 -17 42.5t-42 17.5h-118q-25 0 -42.5 -17.5t-17.5 -42.5v-50q-59 -22 -111 -66l-70 41q-21 12 -45 5.5t-36 -27.5l-59 -104q-12 -21 -6 -45t28 -36
l69 -41q-6 -35 -6 -65t6 -65l-69 -41q-22 -12 -28 -36t6 -45l59 -104q12 -21 36 -27.5t45 5.5l70 41q52 -44 111 -66v-50q0 -25 17.5 -42.5t42.5 -17.5h118q25 0 42 17.5t17 42.5v50q60 22 112 66l70 -41q21 -12 45 -5.5t36 27.5l59 104q12 21 6 45t-28 36v0zM512 294
q-37 0 -63 26.5t-26 63.5t26 63.5t63 26.5t63 -26.5t26 -63.5t-26 -63.5t-63 -26.5v0zM512 533q-61 0 -104.5 -43.5t-43.5 -105.5t43.5 -105.5t104.5 -43.5t104.5 43.5t43.5 105.5t-43.5 105.5t-104.5 43.5v0z" />
    <glyph glyph-name="jdylogo01" unicode="&#xe609;" 
d="M90 740h778q13 0 22 9t9 22v30q0 14 -9 22.5t-22 8.5h-778q-13 0 -21.5 -8.5t-8.5 -22.5v-30q0 -13 8.5 -22t21.5 -9zM313 491h647q13 0 22 9t9 22v30q0 13 -9 22t-22 9h-900q-13 0 -22 -9t-9 -22v-30q0 -13 9 -22t22 -9h161l-131 -433q-4 -15 -9 -22.5t-17 -7.5
q-3 0 -8.5 -1t-14 -8.5t-8.5 -21.5v-26q0 -15 12 -25t36 -10h62h61h651h31v0q13 0 30 9t35.5 27t31 52.5t12.5 77.5q0 78 -51.5 137t-127.5 69q-33 58 -91.5 92t-127.5 34q-104 0 -176.5 -73.5t-72.5 -175.5q0 -20 14 -34t34 -14t34 14t14 34q0 66 46 111.5t112 45.5
q42 0 79.5 -21.5t59.5 -61.5q4 -16 16 -27.5t28 -11.5q49 0 83.5 -34.5t34.5 -83.5q0 -26 -9 -44q-8 -26 -43 -26h-643q-12 0 -18.5 10t-3.5 21z" />
    <glyph glyph-name="dingding" unicode="&#xe6a2;" 
d="M908 514q-2 -11 -12 -32v0v-1q-16 -34 -48.5 -90.5t-56.5 -96.5t-24 -39.5t-1 1.5l-27 -48h131l-250 -334l57 227h-104l36 151q-46 -12 -104 -30q-2 -1 -6.5 -3t-19.5 -2.5t-32 4.5t-44 21t-56 42q-2 2 -5.5 5t-11.5 11.5t-13.5 16.5t-9.5 17t-1.5 16t11.5 11
q15 5 136 22l114 14q-217 -3 -269 5q-38 6 -79 59.5t-52 110.5l-3 14q2 22 50 8q30 -9 117 -28t159 -34l72 -15q-4 2 -12.5 4.5t-33.5 10.5t-49.5 16t-58.5 19t-63.5 21t-60 21t-53 19.5t-38.5 16.5t-20 12q-22 24 -46 98.5t-20 125.5q1 3 1.5 5.5t6.5 6.5t14 2
q271 -124 455 -191q31 -11 76.5 -27t73 -25.5t61.5 -23t53 -24.5t36.5 -25.5t23 -30.5t0.5 -34v0z" />
    <glyph glyph-name="fontsize" unicode="&#xe614;" 
d="M64 384h384v-128h-128v-384h-128v384h-128v128zM960 640h-252v-768h-136v768h-252v128h640v-128z" />
    <glyph glyph-name="paperplane" unicode="&#xe660;" horiz-adv-x="1025" 
d="M1008 890q19 -14 15 -37l-146 -878q-3 -16 -18 -25q-8 -5 -18 -5q-6 0 -14 3l-258 106l-139 -169q-10 -13 -28 -13q-7 0 -12 2q-11 4 -17.5 13.5t-6.5 21.5v199l493 605l-610 -528l-226 92q-21 8 -23 32q-1 22 18 33l951 549q9 5 18 5q12 0 21 -6z" />
    <glyph glyph-name="icondengdeng" unicode="&#xe616;" 
d="M32 480h192v-192h-192v192zM416 480h192v-192h-192v192zM800 480h192v-192h-192v192z" />
    <glyph glyph-name="iconquanxiankongzhi" unicode="&#xe639;" 
d="M512 32q40 0 68 28t28 67v65q0 40 -28 68t-68 28t-68 -28t-28 -68v-65q0 -39 28 -67t68 -28zM480 192q0 13 9.5 22.5t22.5 9.5t22.5 -9.5t9.5 -22.5v-64q0 -13 -9.5 -22.5t-22.5 -9.5t-22.5 9.5t-9.5 22.5v64zM128 448v-192q0 -159 112.5 -271.5t271.5 -112.5
t271.5 112.5t112.5 271.5v192h-768zM832 256q0 -132 -94 -226t-226 -94t-226 94t-94 226v128h640v-128zM256 650q0 102 75 174t181 72t181 -72t75 -174v-138h-64v138q0 75 -56.5 128.5t-135.5 53.5t-135.5 -53.5t-56.5 -128.5v-138h-64v138z" />
    <glyph glyph-name="iconshouzhijizhang" unicode="&#xe64e;" 
d="M512 -30q-47 62 -128 62h-352v-64h352q42 0 69 -25t27 -71h64q0 46 27 71t69 25h352v64h-352q-81 0 -128 -62zM640 896q-81 0 -128 -62q-47 62 -128 62h-352v-800h384v64h-320v672h288q42 0 69 -25t27 -71v-640h64v640q0 46 27 71t69 25h288v-672h-320v-64h384v800h-352z
" />
    <glyph glyph-name="iconzidingyichaxun" unicode="&#xe667;" 
d="M235 661q-75 -75 -75 -181t75 -181l45 45q-56 56 -56 136t56 136zM416 896q-172 0 -294 -122t-122 -294t122 -294t294 -122t294 122t122 294t-122 294t-294 122zM416 128q-146 0 -249 103t-103 249t103 249t249 103t249 -103t103 -249t-103 -249t-249 -103zM996 -100
q-28 -28 -68 -28t-68 28l-178 173l44 46l179 -173q10 -10 23 -10t22.5 9.5t9.5 22.5t-9 23l-174 179l46 44l173 -178q28 -28 28 -68t-28 -68z" />
    <glyph glyph-name="icondouban" unicode="&#xe64a;" 
d="M141 768h742v-84h-742v84zM818 597h-612v-326h612v326v0zM295 514h435v-160h-435v160zM686 83q40 62 75 141l-89 33q-35 -96 -81 -174h-155q-39 102 -87 174l-82 -33q50 -75 82 -141h-229v-83h784v83h-218z" />
    <glyph glyph-name="iconqq" unicode="&#xe691;" 
d="M799 387q21 16 21 52q0 24 -10.5 41t-25.5 17q3 19 3 37q0 110 -78.5 188t-189.5 78t-189.5 -78t-78.5 -188q0 -21 3 -41q-22 -15 -22 -54q0 -20 8 -36q-27 -30 -47 -70q-18 -36 -24.5 -73t-1.5 -61t17 -31q9 -5 30 9.5t44 41.5q7 -65 57 -116q-40 -12 -63 -33t-19 -44
q4 -30 47.5 -46.5t100.5 -9.5q42 4 74 19t46 36h14q12 0 24 1q15 -20 45.5 -34.5t68.5 -19.5q56 -7 98 8.5t45 45.5q3 23 -19.5 44.5t-60.5 33.5q47 48 56 110q20 -29 39 -45t30 -13q9 2 14.5 25t2 61.5t-18.5 74.5q-16 39 -40 70v0z" />
    <glyph glyph-name="iconqqkongjian" unicode="&#xe64c;" 
d="M326 235q9 10 81 54t135.5 80.5t68.5 38.5l-346 46l462 6q17 -14 0 -33q-7 -9 -72.5 -56t-127.5 -89l-62 -43l280 -22l-9 49l224 219l-310 45l-138 280l-138 -280l-310 -45l224 -219l-53 -308l277 145l277 -145l-44 253l-419 -19q-20 20 0 43zM486 387l2 -6l50 2z" />
    <glyph glyph-name="iconweibo" unicode="&#xe64f;" 
d="M420 57q-112 -5 -191 43t-79 121t78.5 125.5t191.5 57.5q115 6 193.5 -36.5t78.5 -114.5q0 -74 -80 -132.5t-192 -63.5zM739 375q-9 1 -15 4.5t-6.5 7t0 6.5t2.5 5l1 2q2 2 4 6t5.5 16t4.5 23.5t-4 26t-17 25.5q-14 14 -37.5 18.5t-47 1t-45 -9t-34.5 -11.5l-13 -5
q-10 -4 -17 -5t-11 0.5t-5.5 3t-1.5 7t0.5 9.5t2.5 13t4 14q0 16 -2.5 28.5t-11.5 27t-23.5 22t-42 7t-63.5 -12.5t-74 -37t-64.5 -48.5t-52.5 -51.5t-34 -38.5t-12 -16.5v0q-22 -28 -36.5 -56.5t-20 -49t-8.5 -37.5t-2 -25v-9q6 -49 30.5 -87.5t58.5 -62.5t80 -41
t88.5 -24.5t89.5 -11.5q78 -6 161 12t154.5 62t101.5 105q17 36 17.5 67.5t-11 51.5t-30 35.5t-34.5 22.5t-29 10zM841 486q1 10 1 14q0 60 -44 103t-106 43q-13 0 -22 -9t-9 -21.5t9 -21.5t22 -9q36 0 62 -25t26 -60q0 -6 -1 -11h1q0 -1 -0.5 -2t-0.5 -2q0 -12 9 -21t22 -9
q12 0 20.5 7.5t9.5 18.5v0q1 1 1 1.5v1v1v0.5v0.5v0.5zM958 452q1 4 1 8q3 21 3 40q0 109 -79 186.5t-191 77.5q-15 0 -26 -11t-11 -26t11 -25.5t26 -10.5q81 0 138 -56t57 -135q0 -18 -3 -35h1q0 -1 -0.5 -2.5l-0.5 -1.5q0 -15 11 -26t26 -11q13 0 23 8t13 20h1v0zM441 220
q-7 -5 -14.5 -4.5t-11.5 7.5q-4 6 -2.5 14.5t9.5 13.5t15.5 4.5t11.5 -7.5q4 -6 1.5 -14t-9.5 -14zM352.5 146q-21.5 -2 -36 8t-14.5 28t14 32.5t34 17.5q24 2 38.5 -9.5t14.5 -29.5q0 -17 -14.5 -31t-36 -16zM391 340q-134 -15 -134 -155q0 -2 0.5 -5t2.5 -12t5.5 -17
t12 -17t20.5 -15q68 -33 128 -20t96 59q14 18 19 43t-2 51t-23.5 48t-49 33.5t-75.5 6.5z" />
    <glyph glyph-name="iconmingdao" unicode="&#xe60c;" 
d="M793 649v-86h-179v82q0 2 0.5 5.5t5 9.5t13.5 6h142q10 0 14.5 -4.5t4.5 -8.5zM614 461h180v-128h-180v128zM896 102v564q0 4 -0.5 11t-6.5 24.5t-16 31t-31.5 24.5t-50.5 11h-39h2h-117h1h-41q-30 0 -52 -10.5t-31.5 -25.5t-15 -30t-5.5 -25v-11v-444q0 -5 -0.5 -13
t-5.5 -28.5t-12.5 -36.5t-24.5 -29t-40 -13v-102h34q66 0 109.5 42.5t43.5 84.5v95h194v-98q0 -3 -1 -6.5t-7 -9.5t-17 -6h-64v-102h89q30 0 52 11t32 24.5t15 31t5.5 24.5t0.5 11v0zM333 486h-103v154h103v-154zM333 205h-103v179h103v-179zM435 204v537q-42 8 -71 -14
h-165q-13 10 -30.5 13.5t-29.5 1.5l-11 -1v-537q0 -4 1 -11t7.5 -24.5t17.5 -31t35 -24.5t56 -11h60h1h25q29 0 50.5 11t31.5 24.5t15.5 31t6 24.5t0.5 11v0z" />
    <glyph glyph-name="iconrenren" unicode="&#xe64d;" 
d="M513 590q-71 82 -177 98v-210q0 -9 2.5 -26t17 -60t36.5 -77q56 -82 119 -109q-71 83 -71 191q0 111 73 193zM343 215q-20 24 -33.5 50.5t-17.5 41.5l-4 14q-11 -54 -45 -100q-25 -32 -88 -80q64 -34 137 -34q72 0 136 33q-67 52 -85 75zM240 474v213
q-103 -19 -171.5 -100t-68.5 -188q0 -109 72 -191q69 43 106 97q23 32 38.5 74.5t19.5 68.5zM776 686v-210q0 -9 2.5 -26t17 -60t36.5 -77q56 -82 119 -109q73 83 73 193q0 109 -71 191t-177 98zM782 213q-19 24 -33 50.5t-18 41.5l-4 14q-10 -54 -44 -100q-25 -33 -88 -80
q64 -34 137 -34q72 0 135 34q-66 52 -85 74zM680 472v213q-100 -18 -167 -95q71 -82 71 -191q0 -110 -73 -193v0v0q70 43 107 97q22 33 37.5 75t20.5 68l4 26v0z" />
    <glyph glyph-name="pushpin" unicode="&#xe687;" 
d="M544 896l-96 -96l96 -96l-224 -256h-224l176 -176l-272 -361v-39h39l361 272l176 -176v224l256 224l96 -96l96 96zM448 352l-64 64l224 224l64 -64z" />
    <glyph glyph-name="gonggao-copy" unicode="&#xe69c;" 
d="M839 78q-12 0 -18 10q-4 7 -2 15t9 12q71 41 112 112q43 73 43 157t-42 157q-41 70 -110 111q-8 5 -10 13t2.5 15t12.5 9t15 -2q79 -47 125 -126q47 -82 47 -177t-48 -177q-47 -80 -126 -127q-5 -2 -10 -2v0zM732 208q-12 0 -17 10q-5 8 -2.5 16t9.5 12q36 21 57 57
q22 38 22 81t-21 80q-21 36 -57 58q-7 4 -9 12t2 15t12 9t16 -2q44 -26 71 -71q26 -47 26 -101t-27 -101q-26 -45 -72 -72q-5 -3 -10 -3v0zM575 -67q-38 0 -78 29l-39 27q-7 5 -8.5 13t3.5 15t13 8.5t15 -3.5l39 -27q12 -9 31.5 -16.5t32.5 -3.5q5 2 7 4t4.5 11.5t3.5 26.5
v733q-1 16 -4.5 25.5t-6 12t-8.5 4.5q-12 6 -30 -2t-29 -17v0l-241 -180q-24 -20 -58.5 -30.5t-50.5 -11.5t-27 0q-39 0 -68 -26t-34 -64l-1 -14v-126l1 -14q5 -39 34 -64.5t68 -25.5h2q31 0 64.5 -11t46 -17.5t20.5 -11.5q4 -3 11 -8.5t25 -21t34 -33t34.5 -44t31.5 -54.5
q4 -7 1 -15t-10.5 -11.5t-15.5 -0.5t-12 10q-17 39 -49.5 76t-47.5 49t-25 19q-6 4 -17 10t-39 14.5t-54 8.5v0q-54 0 -94.5 36t-47.5 90v0l-1 17v130l1 17q7 53 47.5 89t94.5 36h1q8 0 20 0.5t41 8.5t49 24v1l241 180q14 11 31 19q40 19 70 5q19 -8 28 -23q12 -19 14 -54
v-1v-734v-1q0 -19 -2.5 -32t-12.5 -27t-27 -20q-10 -4 -22 -4v0v0zM575 -67z" />
    <glyph glyph-name="sigma" unicode="&#xe6a1;" 
d="M844 191l34 73h30l-50 -297h-742v58l257 302l-257 256v175h758l34 -198h-27l-15 30q-20 43 -41 56t-66 13h-511l273 -272l-230 -272h419q42 0 69.5 11t40 25t24.5 40z" />
    <glyph glyph-name="chuangjiankongbaibiaodan" unicode="&#xe661;" 
d="M646 818h-599q-13 0 -22.5 -9t-9.5 -22v-884q1 -13 10 -22t22 -9h791q13 0 22 9t9 22v698zM822 -81h-760v853h574v-155q0 -11 10 -21t21 -10h155v-667v0zM786 896h-600q-13 0 -22 -9t-9 -22v-78h47v62h574v-155q0 -11 10 -21t21 -10h155v-667h-124v-46h139q13 0 22.5 9
t9.5 22v698z" />
    <glyph glyph-name="congexceldaoru" unicode="&#xe67b;" 
d="M753 700h166v-90h-166v90zM753 565h166v-91h-166v91zM753 429h166v-90h-166v90zM753 294h166v-91h-166v91zM753 158h166v-90h-166v90zM602 791v90h-54l-548 -73v-848l548 -73h54v90h422v814h-422zM344 194q-6 14 -19.5 45t-23 55.5t-16.5 47.5q-9 -28 -30 -76.5
t-27 -63.5q-28 0 -77 2q5 11 38.5 77t51.5 101q-15 35 -44 97t-38 83q52 4 77 5q45 -117 51 -139q7 23 16.5 46.5t23 54.5t19.5 45q38 2 80 5q-58 -120 -95 -193l50 -100t48 -98q-51 3 -85 6zM979 23h-377v45h121v90h-121v45h121v91h-121v45h121v90h-121v45h121v91h-121v45
h121v90h-121v45h377v-722z" />
    <glyph glyph-name="iconchengyuan" unicode="&#xe69d;" 
d="M730 218q-37 10 -61 27t-33.5 33.5t-11.5 33t3 28.5t13 18q13 7 32 26q26 38 32 64q19 0 32.5 16.5t18.5 41.5q5 24 -4 44.5t-28 25.5q0 111 -55 183.5t-156 72.5q-71 0 -119.5 -35.5t-70 -91.5t-21.5 -129q-19 0 -28 -19.5t-4 -44.5q9 -58 51 -58q9 -34 38 -64
q2 -1 6.5 -7t9 -10.5t10.5 -7.5v0q8 -6 13.5 -18.5t4.5 -29t-10.5 -34t-34 -35.5t-63.5 -30q-15 -6 -41 -14.5t-40.5 -13.5t-36 -13t-33 -16t-26 -19t-20.5 -24.5t-11 -30.5t-4 -39t8 -48q2 -3 8 -7.5t35.5 -17t71.5 -21.5t123.5 -16.5t183.5 -7.5t183.5 7.5t123.5 16.5
t71.5 21.5t35.5 17t8 7.5v0q7 26 8 48t-4 39t-11 30.5t-20.5 24.5t-26 19t-33 16t-36 13t-40.5 13.5t-41 14.5z" />
    <glyph glyph-name="iconguanliyuan" unicode="&#xe69e;" 
d="M941 26v25l-7 -6zM570 -45l12 90l-64 64q-18 14 -23.5 36t4.5 41q22 42 64 51l90 13l6 6q-23 18 -31 40.5t-3.5 38.5t15.5 23q13 7 32 26q26 38 32 64q19 0 32.5 16.5t18.5 41.5q5 24 -4 44.5t-28 25.5q0 111 -55 183.5t-156 72.5q-71 0 -119.5 -35.5t-70 -91.5
t-21.5 -129q-19 0 -28 -19.5t-4 -44.5q9 -58 51 -58q9 -34 38 -64q2 -1 6.5 -7t9 -10.5t10.5 -7.5v0q8 -6 13.5 -18.5t4.5 -29t-10.5 -34t-34 -35.5t-63.5 -30q-15 -6 -41 -14.5t-40.5 -13.5t-36 -13t-33 -16t-26 -19t-20.5 -24.5t-11 -30.5t-4 -39t8 -48q2 -3 8 -7.5
t35.5 -17t71.5 -21.5t123.5 -16.5t183.5 -7.5h58v25zM947 173l-96 13q-9 0 -21 8t-17 17l-45 83q0 5 -4 9t-9 4q-3 0 -4.5 -1.5t-3.5 -5t-5 -6.5l-44 -83q-5 -9 -17 -17t-22 -8l-83 -13q-10 0 -13 -7.5t7 -11.5l70 -64q10 -10 13.5 -22.5t-0.5 -22.5l-13 -96q0 -19 6 -19h7
l83 44q6 7 25.5 7t25.5 -7l83 -44h7q5 0 7.5 4.5t-1.5 14.5l-13 96q0 19 13 45l71 64q9 4 6 11.5t-13 7.5v0zM947 173z" />
    <glyph glyph-name="icontianjiachengyuan" unicode="&#xe69f;" 
d="M960 192h-192v192h-64v-192h-192v-64h192v-192h64v192h192v64zM480 384q83 0 160 -38v70q-6 0 -16 3t-16 3q96 75 96 186q0 91 -66.5 157.5t-157.5 66.5t-157.5 -66.5t-66.5 -157.5q0 -111 96 -186q-133 -47 -210.5 -179.5t-77.5 -306.5h576v64h-512q20 167 115.5 275.5
t236.5 108.5zM320 608q0 67 46.5 113.5t113.5 46.5t113.5 -46.5t46.5 -113.5t-46.5 -113.5t-113.5 -46.5t-113.5 46.5t-46.5 113.5z" />
    <glyph glyph-name="iconyidongdao" unicode="&#xe6a0;" 
d="M512 704l-128 64h-320v-768h896v704h-448zM896 64h-768v640h256l128 -64h384v-576zM646 384h-390v-64h390l-121 -102q-19 -20 -7 -45q13 -13 26 -13t19 6l192 160q13 13 13 26t-13 26l-192 160q-10 8 -22 6t-23 -13q-8 -10 -6 -22t13 -23z" />
    <glyph glyph-name="iconchengyuanduoxuan" unicode="&#xe6a3;" horiz-adv-x="1035" 
d="M773 317q60 40 96.5 106.5t36.5 144.5q0 123 -83 210t-198 87q-76 0 -141 -40.5t-103 -109.5t-38 -147q0 -76 35.5 -142t97.5 -109q-112 -46 -181.5 -152.5t-69.5 -236.5h77q0 93 44 173.5t120 127.5t164 47t163.5 -46t119.5 -126t44 -176h77q-4 130 -76 236.5
t-185 152.5zM420 568q0 89 60 152t144.5 63t144.5 -63t60 -151.5t-60 -152t-144 -63.5q-86 0 -145.5 62t-59.5 153zM338 343q0 16 -11.5 28.5t-29.5 12.5q-54 0 -91 40.5t-37 98t37 97.5t91 40q16 0 28.5 11.5t12.5 29.5t-9.5 24.5t-26.5 6.5q-84 0 -144.5 -63t-60.5 -152
q0 -49 21 -93t56 -76q-74 -39 -119 -111.5t-45 -159.5q0 -16 11.5 -28.5t29.5 -12.5q19 0 30 11t11 30q0 93 61 159t149 66q16 0 26 11t10 30z" />
    <glyph glyph-name="iconchakanxiangqing" unicode="&#xe6a6;" 
d="M960 0l-243 243q77 110 77 224q0 98 -49.5 182t-134 133.5t-182 49.5t-181.5 -49.5t-133.5 -133.5t-49.5 -181.5t49.5 -182t133.5 -134t182 -49.5q114 0 224 77l243 -243zM429 186q-115 0 -198.5 83t-83.5 198t83.5 198.5t198.5 83.5t198 -83.5t83 -198.5
q0 -119 -82.5 -200t-198.5 -81zM608 480h-128v128h-64v-128h-128v-64h128v-128h64v128h128v64z" />
    <glyph glyph-name="iconweixin" unicode="&#xe6a7;" 
d="M712 494h16q-21 111 -123.5 185t-238.5 74q-100 0 -184 -41t-133 -111.5t-49 -153.5q0 -73 38.5 -136.5t105.5 -106.5l3 -2l-35 -111l132 68q4 -2 6 -2q56 -16 116 -16q10 0 24 1q-11 36 -11 73q0 76 44.5 140.5t121.5 101.5t167 37zM493.5 602q21.5 0 36.5 -14.5t15 -35
t-15 -35t-36.5 -14.5t-36.5 14.5t-15 35t15 35t36.5 14.5zM238.5 503q-21.5 0 -36.5 14.5t-15 35t15 35t36.5 14.5t36.5 -14.5t15 -35t-15 -35t-36.5 -14.5zM406 213q0 -107 90.5 -182.5t218.5 -75.5q50 0 98 13l5 1l112 -57l-30 94q2 1 3 2q56 36 88.5 89.5t32.5 115.5
q0 107 -90.5 183t-218.5 76t-218.5 -76t-90.5 -183zM779 302.5q0 17.5 12.5 29.5t30.5 12t31 -12t13 -29.5t-12.5 -30t-31 -12.5t-31 12.5t-12.5 30zM564 302.5q0 17.5 12.5 29.5t30.5 12t31 -12t13 -29.5t-13 -30t-31 -12.5t-30.5 12.5t-12.5 30z" />
    <glyph glyph-name="iconchuangjianzhe" unicode="&#xe6b9;" 
d="M505 320q119 0 203.5 84.5t84.5 203.5t-84.5 203.5t-203.5 84.5t-203.5 -84.5t-84.5 -203.5t84.5 -203.5t203.5 -84.5zM505 832q93 0 158.5 -65.5t65.5 -158.5t-65.5 -158.5t-158.5 -65.5t-158.5 65.5t-65.5 158.5t65.5 158.5t158.5 65.5zM894 215l-178 71l-24 -60
l142 -57l26 -233h-696l26 233l142 57l-24 60l-178 -71l-38 -343h840z" />
    <glyph glyph-name="iconxuqiudingzhi" unicode="&#xe6a8;" 
d="M64 -51l301 83l32 32l-211 211l-32 -32l-90 -294v0v0zM64 -51zM224 314l211 -212l410 410l-211 211l-410 -409v0v0zM224 314zM941 736l-83 83q-39 39 -64.5 39t-63.5 -39l-58 -57l211 -212l58 58q38 38 38 64t-38 64v0v0v0zM941 736zM365 813q-39 38 -64.5 38t-63.5 -38
l-199 -199l-38 32l211 212q39 38 90 38t89 -38l116 -116l-39 -32l-102 103v0v0v0zM365 813zM122 595l70 71l38 -39l-70 -70l-6 6l38 -38l109 109l38 -39l-109 -109l13 -12l-38 -32l-167 172l39 39l45 -58v0v0zM122 595zM614 102l109 -108l51 -52l167 167q38 38 38 63.5
t-38 64.5l-109 109l32 38l122 -122q38 -38 38 -89t-38 -90l-180 -179l-32 -32l-38 38l-173 173l39 39l12 -20v0v0v0zM614 102zM755 173l-102 -109l-39 38l109 109l32 -38v0v0zM755 173zM774 122l39 -39l-90 -89l-38 38l89 90v0v0zM774 122z" />
    <glyph glyph-name="sort-normal" unicode="&#xe645;" 
d="M725 302.5q0 -11.5 -8 -19.5l-190 -190q-9 -8 -20 -8t-19 8l-190 190q-8 8 -8 19.5t8 19.5t19 8h381q11 0 19 -8t8 -19.5zM725 466q0 -11 -8 -19.5t-19 -8.5h-381q-11 0 -19 8.5t-8 19.5t8 19l190 190q8 8 19 8t20 -8l190 -190q8 -8 8 -19z" />
    <glyph glyph-name="sort-asc" unicode="&#xe646;" 
d="M725 466q0 -11 -8 -19.5t-19 -8.5h-381q-11 0 -19 8.5t-8 19.5t8 19l190 190q8 8 19 8t20 -8l190 -190q8 -8 8 -19z" />
    <glyph glyph-name="sort-desc" unicode="&#xe647;" 
d="M725 302.5q0 -11.5 -8 -19.5l-190 -190q-9 -8 -20 -8t-19 8l-190 190q-8 8 -8 19.5t8 19.5t19 8h381q11 0 19 -8t8 -19.5z" />
    <glyph glyph-name="iconfontpencil" unicode="&#xe6c3;" 
d="M747 -25h-560q-12 0 -20.5 8.5t-8.5 21t8.5 21t20.5 8.5h560q12 0 20.5 -8.5t8.5 -21t-8.5 -21t-20.5 -8.5v0zM755 594l-122 122l92 92q13 13 30.5 13t30.5 -13l61 -61q13 -13 13 -31t-13 -30l-92 -92v0zM358 195l-122 122l367 369l122 -123zM165 123l40 164l123 -123z
M165 123z" />
    <glyph glyph-name="iconjiechubangding" unicode="&#xe6a9;" 
d="M512 832q-187 0 -317.5 -130.5t-130.5 -317.5t130.5 -317.5t317.5 -130.5t317.5 130.5t130.5 317.5t-130.5 317.5t-317.5 130.5zM250 646q38 44 92.5 44t92.5 -44l103 -102l-52 -45l-102 96q-19 19 -44 19t-39 -19q-16 -21 -17 -44t17 -39l102 -102l-57 -52l-96 103
q-44 38 -44 92.5t44 92.5zM250 115q-10 10 -10 26.5t10 31.5l480 480q9 9 26 9t31 -9q10 -10 10 -26.5t-10 -31.5l-480 -480q-14 -14 -31 -14t-26 14zM774 122q-38 -39 -92.5 -39t-92.5 39l-103 102l52 51l102 -102q19 -19 44 -19t39 19q19 19 19 44t-19 39l-96 102l51 52
l103 -103q39 -38 37.5 -92.5t-44.5 -92.5z" />
    <glyph glyph-name="iconjuhebiao" unicode="&#xe6ad;" 
d="M64 832v-896h896v896h-896zM896 0h-768v576h768v-576zM896 640h-768v128h768v-128zM256 448h128v-128h-128v128zM448 448h128v-128h-128v128zM640 448h128v-128h-128v128zM256 256h128v-128h-128v128zM448 256h128v-128h-128v128zM640 256h128v-128h-128v128z" />
    <glyph glyph-name="iconxuanqushuju" unicode="&#xe6ae;" 
d="M384 704v-192h-192q-53 0 -90.5 -37.5t-37.5 -90.5v-320q0 -53 37.5 -90.5t90.5 -37.5h320q53 0 90.5 37.5t37.5 90.5v122h32q73 0 137.5 14t107.5 44t43 70v390q0 49 -59.5 83t-144 41.5t-169 0t-144 -41.5t-59.5 -83zM576 64q0 -29 -17.5 -46.5t-46.5 -17.5h-320
q-29 0 -46.5 17.5t-17.5 46.5v320q0 29 17.5 46.5t46.5 17.5h320q29 0 46.5 -17.5t17.5 -46.5v-320zM896 314q0 -11 -24 -25.5t-78 -26.5t-122 -12h-32v57h32q143 0 224 45v-38zM896 442v-7q0 -11 -24 -25t-78 -26.5t-122 -12.5h-32v13q0 19 -13 58v0h45q143 0 224 44v-44z
M896 570v0q0 -11 -24 -25.5t-78 -26.5t-122 -12t-122 10.5t-78 23.5t-24 23v0v58q101 -45 224 -45q143 0 224 45v-51zM672 640q-68 0 -122 12.5t-78 26.5t-24 25t24 25t78 26.5t122 12.5t122 -12.5t78 -26.5t24 -25t-24 -25t-78 -26.5t-122 -12.5zM493 371q-15 5 -27.5 1
t-17.5 -14l-134 -224l-71 71q-9 9 -22 9t-22.5 -9.5t-9.5 -22t9 -22.5l96 -96q7 -6 26 -6h6q13 0 26 12l154 256q4 10 0.5 22.5t-13.5 22.5z" />
    <glyph glyph-name="icondayin" unicode="&#xe6af;" 
d="M960 640h-128v192h-640v-192h-128v-512h128v-192h640v192h128v512zM256 768h512v-128h-512v128zM768 0h-512v128v64v128h512v-128v-64v-128zM896 192h-64v192h-640v-192h-64v384h768v-384zM320 256h384v-64h-384v64zM320 128h256v-64h-256v64z" />
    <glyph glyph-name="iconmoye" unicode="&#xe6b0;" 
d="M506 410l-288 288q-10 4 -26 4t-25.5 -4.5t-9.5 -20t9 -24.5l269 -269l-262 -262q-10 -10 -10 -23t10 -22q0 -13 19 -13t26 6l288 288q4 10 4 26t-4 26zM858 410l-288 288q-10 4 -26 4t-26 -4q-8 -8 -7 -24t7 -28l269 -262l-262 -262q-10 -10 -10 -23t10 -22
q0 -13 19 -13t26 6l288 288q4 10 4 26t-4 26z" />
    <glyph glyph-name="iconshouye" unicode="&#xe6b1;" 
d="M589 384l262 262q10 10 10 23t-9.5 22.5t-22.5 9.5t-23 -10l-288 -281q-4 -10 -4 -26t4 -26l288 -288q7 -6 26 -6t26 6q9 10 9 23t-9 22zM237 384l262 262q9 9 10.5 26t-3.5 26q-8 8 -24 7t-28 -7l-288 -288q-9 -10 -9 -23t9 -22l288 -288q7 -13 26 -13t26 6q9 10 9 23
t-9 22z" />
    <glyph glyph-name="iconfabu" unicode="&#xe6b2;" 
d="M826 45h-13l-205 70q-14 5 -19.5 17t0.5 22q4 13 16 18.5t22 0.5l173 -58l90 595l-704 -384l166 -44q14 -5 19.5 -17t-0.5 -22q-4 -14 -16 -19t-22 0l-243 64q-10 0 -18 8t-8 18q0 22 19 32l832 448q22 10 32 0q13 -13 13 -32l-102 -692q0 -12 -13 -25h-19zM480 -32
q-14 0 -23 9t-9 23v211q0 7 13 19l441 557q11 11 23 13t22 -6q10 -10 10 -23t-10 -22l-435 -544v-205q0 -14 -9 -23t-23 -9z" />
    <glyph glyph-name="suoxiao" unicode="&#xe6d9;" 
d="M417 879q83 0 158.5 -32t130.5 -87t87 -130.5t32 -158.5q0 -72 -23 -137t-66 -118l258 -258q13 -13 13 -32q0 -20 -13 -33t-32 -13t-33 14l-257 257q-53 -42 -118.5 -65.5t-136.5 -23.5q-83 0 -159 32.5t-130.5 87t-87 130.5t-32.5 159t32.5 158.5t87 130.5t130.5 87
t159 32v0zM416.5 789q-64.5 0 -123.5 -25.5t-101.5 -68t-67.5 -101.5t-25 -123.5t25 -123.5t67.5 -101.5t101.5 -67.5t123.5 -25t123.5 25t101.5 67.5t68 101.5t25.5 123.5t-25.5 123.5t-68 101.5t-101.5 68t-123.5 25.5zM281 516h272q19 0 32 -13t13 -32t-13 -32.5
t-32 -13.5h-272q-19 0 -32.5 13.5t-13.5 32.5t13.5 32t32.5 13z" />
    <glyph glyph-name="iconliuchengzhuangtai" unicode="&#xe6b3;" 
d="M960 256h-128v64v64h-256v128h192q29 0 46.5 17.5t17.5 46.5v192q0 29 -17.5 46.5t-46.5 17.5h-448q-29 0 -46.5 -17.5t-17.5 -46.5v-192q0 -29 17.5 -46.5t46.5 -17.5h192v-128h-192h-64v-64v-64h-128q-29 0 -46.5 -17.5t-17.5 -46.5v-192q0 -29 17.5 -46.5t46.5 -17.5
h320q29 0 46.5 17.5t17.5 46.5v192q0 29 -17.5 46.5t-46.5 17.5h-128v64h448v-64h-128q-29 0 -46.5 -17.5t-17.5 -46.5v-192q0 -29 17.5 -46.5t46.5 -17.5h320q29 0 46.5 17.5t17.5 46.5v192q0 29 -17.5 46.5t-46.5 17.5zM448 192v-192h-326v192h326zM314 576v192h454v-192
h-454zM960 0h-320v192h320v-192zM192 128h192v-64h-192v64zM704 128h192v-64h-192v64zM384 704h320v-64h-320v64z" />
    <glyph glyph-name="iconshenpi" unicode="&#xe6b4;" 
d="M640 256v102q72 39 106.5 117.5t15.5 164.5q-20 69 -70 120.5t-116 65.5q-63 14 -122.5 -0.5t-102.5 -50t-69 -88t-26 -111.5q0 -71 35 -130t93 -88v-102h-256q-29 0 -46.5 -17.5t-17.5 -46.5v-64q0 -29 17.5 -46.5t46.5 -17.5h768q29 0 46.5 17.5t17.5 46.5v64
q0 29 -17.5 46.5t-46.5 17.5h-256zM448 256v102v32l-32 20q-96 64 -96 166q0 82 55 137t137 55t137 -55t55 -137q0 -102 -96 -166l-32 -20v-38v-96v-64h64h256v-64h-768v64h256h64v64zM928 -64h-832q-14 0 -23 9t-9 23t9 23t23 9h832q14 0 23 -9t9 -23t-9 -23t-23 -9z" />
    <glyph glyph-name="iconqingkongchaxun" unicode="&#xe6ba;" 
d="M934 384l-102 102l128 128l-211 212l-128 -128l-109 108q-24 24 -61.5 24t-66.5 -24l-294 -294q-24 -24 -24 -61.5t24 -66.5l422 -422q24 -24 61.5 -24t66.5 24l294 294q24 29 24 66.5t-24 61.5zM595 6q-9 -9 -22 -9t-23 9l-192 192l128 128l-38 39l-128 -128l-83 83
l83 83l-38 45l-84 -83l-64 64q-9 9 -9 22t9 23l148 147l467 -467zM890 301l-103 -109l-467 467l102 103q10 9 23 9t22 -9l147 -148l128 128l128 -128l-128 -128l148 -147q9 -5 9 -17t-9 -21zM573 151l-86 -86l-40 41l86 86z" />
    <glyph glyph-name="iconwocanyude" unicode="&#xe6b5;" 
d="M64 832v-896h256v64h-192v768h768v-192h64v256h-896zM672 371zM531 371q0 58 41.5 99.5t99.5 41.5t99.5 -41.5t41.5 -99.5t-41.5 -99.5t-99.5 -41.5t-99.5 41.5t-41.5 99.5zM672 224q-120 0 -204 -84t-84 -204h576q0 120 -84 204t-204 84z" />
    <glyph glyph-name="iconwodedaiban" unicode="&#xe6b6;" 
d="M64 832v-896h896v896h-896zM896 0h-768v768h768v-768zM320 320q-25 0 -44.5 -18t-19.5 -46v0q0 -24 20 -44t44 -20q25 0 44.5 18t19.5 46v0q0 28 -19.5 46t-44.5 18zM576 448h192q25 0 44.5 18t19.5 46v0q0 25 -18 44.5t-46 19.5h-192q-29 0 -46.5 -17.5t-17.5 -46.5v0
q0 -29 17.5 -46.5t46.5 -17.5zM576 192h192q25 0 44.5 18t19.5 46v0q0 25 -18 44.5t-46 19.5h-192q-25 0 -44.5 -18t-19.5 -46v0q0 -29 17.5 -46.5t46.5 -17.5zM256 397q13 -13 26 -13v0q12 0 25 13l135 179q12 26 -7 45q-10 9 -25 6t-20 -13l-115 -147l-64 64q-9 10 -22 10
t-22.5 -9.5t-9.5 -22.5t9 -23z" />
    <glyph glyph-name="iconwofaqide" unicode="&#xe6b7;" 
d="M64 832v-896h384v64h-320v768h768v-320h64v384h-896zM896 320h-192v186q0 28 -17.5 46t-46.5 18t-46.5 -18t-17.5 -46v-186h-192q-29 0 -46.5 -17.5t-17.5 -46.5t17.5 -46.5t46.5 -17.5h192v-192q0 -29 17.5 -46.5t46.5 -17.5t46.5 17.5t17.5 46.5v192h192
q29 0 46.5 17.5t17.5 46.5t-17.5 46.5t-46.5 17.5z" />
    <glyph glyph-name="iconliuchengchaxun" unicode="&#xe6b8;" 
d="M64 832v-896h256v64h-192v768h768v-192h64v256h-896zM838 147q45 79 45 154q0 115 -83 198t-198 83q-116 -4 -199 -88.5t-83 -199.5t83 -198t199 -83q75 0 153 45l109 -109q19 -19 44 -19t39 19q19 19 19 44t-19 39zM601.5 96q-81.5 0 -140 58.5t-58.5 140t58.5 140
t140 58.5t140 -58.5t58.5 -140t-58.5 -140t-140 -58.5z" />
    <glyph glyph-name="icontanhao1" unicode="&#xe6bb;" 
d="M512 894q-105 0 -199.5 -40t-162.5 -108t-108 -162.5t-40 -199.5t40 -199.5t108 -162.5t162.5 -108t199.5 -40t199.5 40t162.5 108t108 162.5t40 199.5t-40 199.5t-108 162.5t-162.5 108t-199.5 40zM563 282h-102l-22 422h146zM586 93q0 -30 -21.5 -51.5t-51.5 -21.5
t-51.5 21.5t-21.5 51.5t21.5 51.5t51.5 21.5t51.5 -21.5t21.5 -51.5z" />
    <glyph glyph-name="mail" unicode="&#xe6bc;" horiz-adv-x="1025" 
d="M1024 533v-454q0 -38 -27 -64.5t-64 -26.5h-842q-37 0 -64 26.5t-27 64.5v454q25 -28 58 -50q207 -140 284 -197q32 -24 52.5 -37.5t54 -27.5t63.5 -14h1q29 0 62.5 14t54 27.5t52.5 37.5q98 70 285 197q33 22 57 50v0zM1024 701q0 -45 -28 -86t-70 -71
q-215 -149 -267 -185q-6 -4 -24.5 -17.5t-31 -22t-29.5 -18.5t-32.5 -15.5t-28.5 -5.5h-2q-13 0 -28.5 5.5t-32.5 15.5t-29.5 18.5t-31 22t-24.5 17.5q-52 36 -149.5 104t-117.5 81q-35 24 -66.5 66t-31.5 78q0 45 23.5 74.5t67.5 29.5h842q37 0 64 -26.5t27 -64.5v0z" />
    <glyph glyph-name="fangda" unicode="&#xe765;" 
d="M945 28l-206 207q79 102 79 231q0 102 -50.5 189t-137.5 137t-189 50t-189 -50t-137 -137t-50 -189t50 -189t137 -137.5t189 -50.5q129 0 231 79l207 -206q13 -14 32.5 -14t33.5 14t14 33.5t-14 32.5v0zM159 466q0 117 82.5 199.5t199.5 82.5t200 -82.5t83 -199.5
t-83 -200t-200 -83t-199.5 83t-82.5 200v0zM580 506h-99v98q0 17 -11.5 29t-28.5 12t-28.5 -12t-11.5 -29v-98h-99q-16 0 -28 -11.5t-12 -28.5t12 -28.5t28 -11.5h99v-99q0 -16 11.5 -28t28.5 -12t28.5 12t11.5 28v99h99q16 0 28 11.5t12 28.5t-12 28.5t-28 11.5v0z" />
    <glyph glyph-name="diaozhengshunxu" unicode="&#xe6c0;" 
d="M872 657l-226 226q-6 7 -14 10q-16 6 -32.5 -0.5t-22.5 -22.5q-4 -8 -4 -17v-860q0 -17 12.5 -29.5t30.5 -12.5t30.5 12.5t12.5 29.5v757l153 -153q12 -13 30 -13t30.5 12.5t12.5 30.5t-13 30zM440 853v-860q0 -3 -3 -11q7 -25 -10 -42q-12 -13 -30 -13t-30 13l-226 226
q-13 12 -13 30t12.5 30.5t30 12.5t30.5 -13l153 -153v780q0 18 12.5 30.5t30.5 12.5t30.5 -12.5t12.5 -30.5v0z" />
    <glyph glyph-name="xinjian" unicode="&#xe6c1;" 
d="M968 54v314q0 15 -10.5 26t-26 11t-26 -11t-10.5 -26v-314q0 -15 -10.5 -25.5t-25.5 -10.5h-747q-15 0 -26 10.5t-11 25.5v733q0 15 11 25.5t26 10.5h323q15 0 25.5 11t10.5 26t-10.5 25.5t-25.5 10.5h-323q-46 0 -78 -32t-32 -77v-733q0 -45 32 -77t78 -32h747
q45 0 77 32t32 77zM968 564q0 -15 -10.5 -26t-25.5 -11h-260v-259q0 -15 -10.5 -25.5t-25.5 -10.5t-26 10.5t-11 25.5v259h-259q-15 0 -25.5 11t-10.5 26t10.5 25.5t25.5 10.5h259v260q0 15 11 25.5t26 10.5t25.5 -10.5t10.5 -25.5v-260h260q15 0 25.5 -10.5t10.5 -25.5v0z
" />
    <glyph glyph-name="wancheng" unicode="&#xe6c2;" 
d="M828 67q-62 -62 -142 -96q-83 -35 -174 -35t-175 35q-80 34 -142 96t-96 143q-35 83 -35 174t35 174q34 80 96 142t142 96q84 35 175 35t174 -35q80 -34 142 -96t96 -142q36 -83 36 -174t-36 -174q-34 -81 -96 -143zM512 895q-104 0 -199 -40.5t-163.5 -109t-109 -163
t-40.5 -198.5t40.5 -199t109 -163.5t163.5 -109t199 -40.5t198.5 40.5t163 109t109.5 163.5t41 199t-41 198.5t-109.5 163t-163 109t-198.5 40.5zM754 577l-319 -318l-163 162q-9 9 -22.5 9t-23 -9.5t-9.5 -23t10 -22.5l185 -185v0q3 -3 6 -5q22 -13 39 5v0l342 341
q10 10 10 23.5t-9.5 23t-23 9.5t-22.5 -10v0z" />
    <glyph glyph-name="wps" unicode="&#xe6c4;" horiz-adv-x="1456" 
d="M1221 684q-17 27 -50 27h-289q-35 0 -52 -31l-98 -166l-64 -129l-87 -169l-196 401h162l105 -216l63 129l-82 150q-16 31 -51 31h-289q-33 0 -50 -27q-2 -3 -3 -6.5t-1.5 -6t0.5 -6.5t1 -6t2 -6.5t2.5 -6t3.5 -7t3 -6.5l276 -572q15 -32 51 -32h1q35 0 51 31l102 195
l63 130l122 232h161l-195 -401l-71 152l-64 -129l86 -179q16 -31 51 -31h1q36 0 51 32l276 572q0 1 2.5 6.5t3.5 7t3 6t2 6.5t1 6t0.5 6.5t-2 6t-2.5 6.5z" />
    <glyph glyph-name="news" unicode="&#xe604;" 
d="M227 126l23 73l1 297q0 98 69.5 167.5t167.5 69.5h15q98 0 167.5 -69.5t69.5 -167.5v-285l24 -85h-537zM480 813q0 6 4.5 11t11 5t11 -5t4.5 -11v-12h-8h-15h-8v12zM807 216v280q0 106 -64.5 188t-163.5 107v22q0 34 -24.5 58.5t-59 24.5t-58.5 -24.5t-24 -58.5v-22
q-100 -25 -164.5 -107t-64.5 -188v-282l-29 -94l-1 -10q0 -21 15 -36t36 -15h581q21 0 36 15t15 37zM495.5 -43q-23.5 0 -39 15.5t-15.5 39.5h-68q0 -49 36 -85.5t86.5 -36.5t86.5 36.5t36 85.5h-68q0 -24 -15.5 -39.5t-39 -15.5z" />
    <glyph glyph-name="help1" unicode="&#xe6c6;" 
d="M687 519q0 -32 -13 -58q-12 -27 -53 -65q-40 -39 -53.5 -55.5t-20.5 -39.5q-6 -22 -6 -61h-70q0 45 7 71q7 28 22 47q13 20 52 59q37 39 48 57t11 52.5t-25 61.5t-72 27q-107 0 -107 -127h-70q1 58 13 88t39 54t59 35t68 11q73 0 122 -43t49 -114v0zM469 93h78v82h-78
v-82zM512 -56q-90 0 -171.5 34.5t-140.5 93.5t-94 141t-35 171.5t35 171t94 140.5t140.5 94t171 35t171.5 -35t141 -94t93.5 -140.5t34.5 -171t-34.5 -171.5t-93.5 -141t-141 -93.5t-171 -34.5v0zM512 896q-105 0 -199.5 -40.5t-163 -109t-109 -163t-40.5 -199t40.5 -199
t109 -163t163 -109t199 -40.5t199 40.5t163 109t109 163t40.5 199t-40.5 199t-109 163t-163 109t-198.5 40.5v0z" />
    <glyph glyph-name="caidan" unicode="&#xe6c5;" horiz-adv-x="1280" 
d="M97 435h320v385h-320v-385zM97 -13h320v384h-320v-384zM481 -13h321v384h-321v-384zM866 -13h321v384h-321v-384zM481 435h321v385h-321v-385zM866 820v-385h321v385h-321z" />
    <glyph glyph-name="dingding1" unicode="&#xe6d8;" 
d="M508.5 830q-91.5 0 -174.5 -35.5t-143.5 -95.5t-96 -143.5t-35.5 -175t35.5 -174.5t96 -143.5t143.5 -96t174.5 -35.5t175 35.5t143.5 96t95.5 143.5t35.5 174.5t-35.5 175t-95.5 143.5t-143.5 95.5t-175 35.5zM717 441q-1 -6 -6 -17v0l-1 -1q-8 -18 -25 -47.5t-30 -50.5
l-13 -21v0l-14 -25h69l-133 -176l30 120h-54l19 79q-25 -6 -55 -16q-3 -1 -9.5 -2.5t-28.5 6t-46 29.5l-2.5 2.5l-6 6t-7.5 9t-5 9t-0.5 8.5t6.5 6q7 3 71 11l61 8q-115 -2 -143 3q-20 3 -41.5 31t-27.5 58l-1 9q2 10 26 3q16 -5 62 -15t84 -18l38 -8q-193 60 -206 74
q-11 13 -24 52t-10 67q0 1 0.5 2.5t3.5 3.5t7 1q143 -66 241 -101q16 -6 40 -14.5t38.5 -13.5t32.5 -12t28 -13t19.5 -13.5t12 -16t0.5 -17.5z" />
    <glyph glyph-name="chuangjianyingyong" unicode="&#xe6c7;" 
d="M669 794l-78 73l27 -11h-554l40 40v-916l-40 39h132v-39h-132v916h554l78 -73zM216 817v-422h-40v442h582l182 -170v-588h-40v580l6 -15l-169 159l13 -6h-554l20 20v0zM900 0v40h39v-159h-763v478h39v-458l-19 19h724l-20 -19v99v0zM749 794v25l9 3l17 -16v-147l-26 26
h156l21 -19l-3 -7h-28l-146 135v0zM934 659h-185v171zM683 303q8 0 14 6t6 14t-6 14t-14 6h-263q-8 0 -14 -6t-6 -14t6 -14t14 -6h263zM532 198q0 -8 5.5 -14t14 -6t14 5.5t5.5 14.5v263q0 8 -5.5 14t-14 6t-14 -6t-5.5 -14v-263z" />
    <glyph glyph-name="cha" unicode="&#xe679;" 
d="M51 871l-26 -26l938 -939l27 27zM25 -67l26 -27l939 939l-27 26z" />
    <glyph glyph-name="serviceheart" unicode="&#xe6c8;" horiz-adv-x="1130" 
d="M553 -128q-7 0 -12 1.5t-13.5 6.5t-11.5 7l-15 7q-371 372 -401 409q-56 67 -82 151.5t-15 168.5q17 83 69.5 147t131.5 98q107 40 178 22q22 -5 32.5 -20t4.5 -32q-14 -45 -44 -45q-63 11 -127 -14q-60 -22 -98.5 -69t-49.5 -110q-11 -61 9 -123t65 -107
q164 -164 379 -387q342 342 379 387q45 45 65.5 107t8.5 123q-11 62 -48 109t-93 70q-72 27 -145.5 11.5t-129.5 -71.5q-44 -38 -118 -108.5t-105 -106.5q-16 -11 -35.5 -6.5t-31.5 20.5q-11 12 -11 26.5t11 25.5l223 223q79 73 182 93.5t197 -18.5q79 -34 131.5 -98
t69.5 -147q11 -85 -16 -168.5t-88 -144.5q-45 -52 -416 -423q-15 -15 -30 -15v0z" />
    <glyph glyph-name="servicemedal" unicode="&#xe6c9;" 
d="M570 245l-2 -1l31 -101l-87 60l-87 -60l30 101l-84 63l103 2h3l35 100l34 -97l1 -3l106 -2l-83 -62v0zM695 358l-111 3l-37 104q-8 25 -35 25t-36 -25l-36 -104l-112 -3q-12 0 -21.5 -7t-13.5 -19q-8 -25 13 -42l89 -66l-32 -105q-8 -26 13 -42q5 -3 11 -5q2 -1 5 -1
q1 0 3 -1h4q3 0 6 1q2 0 5 1q6 2 10 5l92 63l91 -63q10 -7 22 -7t22 8q22 15 14 41l-32 105l88 66q22 17 14 42q-4 12 -13.5 19t-22.5 7v0zM343 378q12 0 20.5 9t8.5 21v173q0 24 20 41t48 17h144q28 0 47.5 -17t19.5 -41v-173q0 -12 9 -21t21 -9t21 9t9 21v173
q0 49 -37.5 83t-89.5 34h-144q-53 0 -90 -34t-37 -83v-173q0 -12 8.5 -21t21.5 -9v0zM827 69q-63 -63 -144.5 -96.5t-171 -33.5t-170.5 33.5t-144 96.5q-86 86 -116 200.5t0 229.5t116 200q63 63 144 96.5t170.5 33.5t171 -33.5t144.5 -96.5t96.5 -144t33.5 -170.5
t-33.5 -171t-96.5 -144.5v0zM874 746q-73 73 -166 111.5t-196 38.5t-196.5 -38.5t-166 -111t-111 -166t-38.5 -196.5t38.5 -196t111 -165.5t166 -111.5t196.5 -39t196 39t166 111q98 98 133 230t0 264t-133 230v0z" />
    <glyph glyph-name="icon_tick" unicode="&#xe66a;" horiz-adv-x="1389" 
d="M460 77l-307 307l-102 -102l409 -410l878 878l-102 102z" />
    <glyph glyph-name="data_backup" unicode="&#xe6ca;" 
d="M159 602l75 -702h525l75 702h-675v0zM218 548h557l-64 -594h-429zM415 896l-58 -165l-319 24l-4 -53l943 -72l4 53l-324 25l-12 163l-230 25v0zM416 738l35 100l144 -16l8 -103z" />
    <glyph glyph-name="form_data" unicode="&#xe6cb;" 
d="M98 -128v0q-24 0 -41 17t-17 42v784q0 24 17 41t41 17v0h121q15 0 25 -10t10 -24.5t-10 -24.5t-25 -10v0h-110v-762h805v762h-108q-14 0 -23.5 10.5t-9.5 24.5t9.5 24t23.5 10h119q24 0 41.5 -17t17.5 -41v-784q0 -25 -17.5 -42t-41.5 -17h-827v0zM276 73v0q-15 0 -25 10
t-10 24.5t10 25t25 10.5h471q15 0 25 -10.5t10 -25t-10 -24.5t-25 -10v0h-471zM276 274v0q-15 0 -25 10t-10 24.5t10 24.5t25 10h471q15 0 25 -10t10 -24.5t-10 -24.5t-25 -10v0h-471zM276 474v0q-15 0 -25 10t-10 24.5t10 25t25 10.5h471q15 0 25 -10.5t10 -25t-10 -24.5
t-25 -10h-471zM325 702v0q-14 0 -24.5 10.5t-10.5 25t10.5 24.5t24.5 10h60q2 53 38.5 88.5t88.5 35.5v0q51 0 88 -36t38 -88h60q14 0 24.5 -10t10.5 -24.5t-10.5 -25t-24.5 -10.5v0h-373zM512 826q-24 0 -40.5 -16.5t-16.5 -39.5l113 2q-2 23 -18 38.5t-38 15.5z" />
    <glyph glyph-name="total_data" unicode="&#xe6cc;" 
d="M910 896h-796q-47 0 -80.5 -33.5t-33.5 -80.5v-796q0 -47 33.5 -80.5t80.5 -33.5h796q47 0 80.5 33.5t33.5 80.5v796q0 47 -33.5 80.5t-80.5 33.5zM341 100h-113v113h113v-113v0zM341 327h-113v114h113v-114zM341 555h-113v113h113v-113zM796 100h-398v113h398v-113v0z
M796 327h-398v114h398v-114zM796 555h-398v113h398v-113z" />
    <glyph glyph-name="total_users" unicode="&#xe6ce;" 
d="M512 896q-138 0 -256 -69t-187 -187t-69 -256t69 -256t187 -187t256 -69t256 69t187 187t69 256t-69 256t-187 187t-256 69zM512 742q65 0 109.5 -44t44.5 -109t-44.5 -109.5t-109.5 -44.5t-109.5 44.5t-44.5 109.5t44.5 109t109.5 44zM512 15q-94 0 -175 44.5
t-132 119.5q0 36 33 67.5t82 50.5t100.5 30t91.5 11t91.5 -11t100.5 -30t82 -50.5t33 -67.5q-51 -75 -132 -119.5t-175 -44.5z" />
    <glyph glyph-name="app_bridge" unicode="&#xe6d0;" 
d="M245 182h-188v-136h188v-64l150 132l-150 133v-65zM766 889h-467q-81 0 -138 -56.5t-57 -136.5v-427h76v427q0 49 34.5 83.5t84.5 34.5h467q49 0 84 -34.5t35 -83.5v-622q0 -49 -35 -83.5t-84 -34.5h-467q-30 0 -57 15h-107q27 -42 70 -66t94 -24v0h467q81 0 137.5 56.5
t56.5 136.5v622q0 80 -56.5 136.5t-137.5 56.5zM764 664q0 -10 -7.5 -17.5t-17.5 -7.5v0h-398v0q-11 0 -18 7.5t-7 18t7 17.5t18 7h398v0q10 0 17.5 -7t7.5 -18v0zM764 498q0 -10 -7.5 -17.5t-17.5 -7.5v0h-398v0q-11 0 -18 7.5t-7 17.5t7 17.5t18 7.5h398v0q10 0 17.5 -7.5
t7.5 -17.5v0zM764 324q0 -10 -7.5 -17.5t-17.5 -7.5v0h-398h-1q-10 0 -17 7.5t-7 18t7 17.5t18 7v0h398v0q10 0 17.5 -7t7.5 -18v0zM764 139q0 -10 -6 -17.5t-14 -7.5h-312q-8 0 -13.5 7.5t-5.5 17.5t5.5 17.5t13.5 7.5h312q8 0 14 -7.5t6 -17.5z" />
    <glyph glyph-name="user_async" unicode="&#xe6d1;" horiz-adv-x="1269" 
d="M978 41q-14 0 -25 11.5t-11 25.5q0 16 11 26q10 10 24 10h1q87 0 148.5 61t61.5 148v1v1q0 80 -54 139q-56 72 -145 77q-12 73 -69 140l30 -42q-1 1 -3.5 3t-4.5 3q-17 41 -77 85q10 -2 8 3q-7 15 -64 45q-29 16 -59 26q3 1 -2 3q-38 15 -109 17h-8v0q-100 0 -185 -49
t-135 -132l-2 -4l-4 -8q-46 -74 -56 -164q-23 30 -49.5 34t-47 -10.5t-38.5 -41.5q-39 -48 -39 -125q0 -87 60.5 -148.5t145.5 -61.5q18 0 28.5 -10t10.5 -26t-11 -26.5t-28 -10.5q-116 0 -198 83q-83 83 -83 199v1q0 93 57 169q56 75 142 100l12 3l5 12q31 79 86.5 140.5
t128.5 99.5q14 15 74 31.5t126 16.5v0q137 0 249 -78.5t163 -209.5l5 -12l12 -3q105 -31 159 -124q16 -18 28 -58.5t12 -85.5v-1v-2q0 -116 -82 -198q-81 -83 -198 -83h-1v0zM630 -120q-13 0 -27 10l-168 191q-10 10 -10 24q0 13 10.5 22.5t24.5 9.5q10 0 23 -13l115 -127
v468l-116 -128q-12 -12 -26 -12q-12 0 -21.5 10t-9.5 22q0 11 8 26l171 190q9 9 25 9q13 0 27 -10l168 -191q10 -10 10 -24q0 -13 -10 -22.5t-25 -9.5q-10 0 -22 13l-116 127v-468l116 128q12 12 26 12q12 0 21.5 -10t9.5 -22q0 -11 -8 -26l-171 -190q-9 -9 -25 -9v0z" />
    <glyph glyph-name="aggregate" unicode="&#xe6d2;" 
d="M718 166h-465q-10 0 -16.5 -6.5t-6.5 -16t6.5 -16t16.5 -6.5h465q10 0 16.5 6.5t6.5 16t-6.5 16t-16.5 6.5v0zM865 -31q0 -13 -9 -22t-21 -9h-1h-682v0q-13 0 -22 9t-9 22v836q0 12 9 21t22 9v0h481v-182q0 -25 18 -43t44 -18h170v-623v0zM679 835l186 -197h-155v0
q-13 0 -22 8.5t-9 21.5v167zM679 896h-558q-26 0 -44 -18t-18 -43v-897q0 -25 18 -43t44 -18h744q26 0 44 18t18 43v700zM230 387q0 -10 6.5 -16.5t16.5 -6.5h465q10 0 16.5 6.5t6.5 16t-6.5 16t-16.5 6.5v0h-465q-10 0 -16.5 -6.5t-6.5 -15.5v0zM253 592h217q10 0 16.5 6.5
t6.5 16t-6.5 16.5t-16.5 7v0h-217q-10 0 -16.5 -7t-6.5 -16.5t6.5 -16t16.5 -6.5v0z" />
    <glyph glyph-name="logo" unicode="&#xe6d3;" horiz-adv-x="1433" 
d="M0 282q0 -111 54.5 -205t149 -149t204.5 -55h370l-261 262q-72 72 -107 166l71 -126v0q-11 14 -16 21l-9 14t-12 19q-1 3 -8 15q-38 67 -49 146l32 -111v0q-6 14 -8 20q-3 7 -6 17q-19 55 -22 118l2 -28q-2 10 -3 39l1 -19q-1 5 -1 26v-14q-1 2 -1 22v0v0v5v2q0 8 1 21
q1 14 1 17q1 6 3 21q2 14 2 17q2 7 5 22q3 14 4 16q1 7 7 24q0 2 1.5 6t2.5 7q6 16 13 32q0 1 0.5 2t1.5 2q8 18 17 35q-14 1 -31 1h-1q-110 0 -204.5 -54.5t-149 -149t-54.5 -204.5v0zM604 701l4 -2t4.5 -2t3.5 -2q79 -40 137 -105l-86 75l3 -1q6 -5 11 -9q8 -5 19 -15
q1 0 5 -3t6 -5q10 -9 21 -20q1 -1 3 -2.5t3 -2.5q13 -14 24 -27q1 0 7 -9q9 -11 16 -21q1 -1 8 -11q57 -84 72 -187l-21 86q5 -13 9 -29l1 -2.5t1 -3.5q5 -18 8 -37q1 -2 1.5 -5.5t0.5 -5.5q3 -16 3 -22q1 1 2.5 3.5l1.5 2.5l4 6q9 12 17 22l2 2q8 10 18 20l4 5q11 10 21 19
q1 0 4 2q9 8 20 15l5 4q11 8 24 15l5 2q53 29 114 37l-87 -24q13 6 27 10l6 2q14 4 26 7h2h2q13 3 29 5l7 1q15 1 32 1q20 0 42 -3q9 -1 22 -4l2.5 -0.5t3.5 -0.5q16 -3 28 -7q-3 81 -35.5 153.5t-88.5 126.5q-53 54 -127 84.5t-156 30.5h-1h-1q-91 0 -171.5 -37.5
t-137.5 -104.5q26 -9 35 -12l5 -2.5t5 -1.5q13 -6 25 -11zM817 282q0 17 -2 36q0 2 -0.5 6.5t-0.5 5.5q-2 16 -4 23q0 3 -1 8t-2 6q-3 16 -4 21q-1 2 -1.5 4.5t-1.5 5t-2 4.5q-4 15 -6 19q-1 3 -3 8t-3 6q-5 15 -7 18q-1 2 -2 4.5t-2.5 5t-2.5 4.5q-6 12 -9 17q-1 2 -8 13
q-8 13 -10 16t-10 13q-8 12 -11 14q0 1 -10 13q-9 9 -12.5 13t-11.5 11q-9 9 -13 12.5t-13 10.5q-65 53 -146 77l46 -17q-27 10 -60 18q55 -18 52 -15q-8 6 -59 18l44 -13q-23 8 -56 13l42 -9q-22 6 -51 10l26 -3q-22 6 -61 9l58 -9q-1 0 -2.5 -3l-2.5 -5q-52 -84 -58 -186
l2 24v-3q-1 -13 -1 -16q-1 -5 -1 -18v-16q0 -5 0.5 -18t1.5 -17q0 -5 2 -18q2 -11 2 -16q1 -5 4 -18t4 -15t6 -18q0 -1 2 -6.5t3 -8.5q0 -2 7 -18q1 -1 3 -6t3 -8l9 -18q6 -12 7 -13q1 -2 11 -18q1 -1 3.5 -5t4.5 -7q5 -6 14 -18q1 -1 3.5 -4.5t4.5 -5.5q12 -14 24 -27
l262 -261v370v0zM1157 200q1 2 3.5 5t3.5 4q10 13 15 19q1 3 3.5 7t4.5 6q9 14 11 18l7 13q7 12 9 18q1 2 6 15q5 12 8 18q1 4 4.5 15.5t5.5 18.5q13 49 14 103l-3 -43v1l-2 1t-3 1q-39 14 -84 16l47 -6q-22 5 -47 5l20 -1q-13 2 -28 2q-116 0 -198.5 -82.5t-82.5 -199.5
v-242l262 261q12 13 24 27zM1434 154q-1 74 -36 137t-96 101q-1 0 -1 -1v-3q-8 -50 -26 -95l15 48v-1q-4 -15 -7 -24q-1 -3 -6 -15q-27 -74 -77 -133q-8 -10 1 1q-15 -17 -29 -31l24 24q-21 -23 -50 -47l77 82l-1 -1q-6 -9 -16 -22q-1 -1 -3.5 -4.5t-4.5 -5.5
q-13 -16 -27 -29l-261 -262h242q117 0 199 82.5t83 198.5v0z" />
    <glyph glyph-name="chacha2" unicode="&#xe6d4;" 
d="M959 742l40 40l-81 81l-885 -885l81 -81l40 40zM878 -63l40 -40l81 81l-885 885l-81 -81l41 -40z" />
    <glyph glyph-name="recycle" unicode="&#xe732;" horiz-adv-x="1160" 
d="M197 -89l-151 249l325 590l174 -319l-278 -520h-70zM963 -89h-638l162 296h592l35 -59zM441 857h279l324 -591h-348l-301 532z" />
    <glyph glyph-name="auth_setting" unicode="&#xe733;" 
d="M491 589q-27 -1 -46 -20.5t-19 -46.5t19 -47t46 -21q27 1 46 21t19 46.5t-19 46.5t-46 21v0zM534 342v-194v-2q0 -18 -12.5 -30.5t-30.5 -12.5t-30 12.5t-12 30.5v2v194q-59 14 -100.5 66.5t-41.5 113.5q0 76 54 130t130 54t130 -54t54 -130q0 -61 -41.5 -113.5
t-99.5 -66.5zM773 802h-1q-64 0 -146.5 27t-134.5 66q-52 -39 -134.5 -66t-146.5 -27h-1q-58 0 -112 20v-444q0 -63 42 -146q44 -86 124 -176q73 -81 154 -142q31 -23 57 -39q12 -8 24 0q27 17 58 40q35 27 81.5 69.5t76.5 75.5q83 90 128 176q44 82 44 142v444
q-55 -20 -113 -20v0z" />
    <glyph glyph-name="rumenshipin" unicode="&#xe6d5;" horiz-adv-x="1616" 
d="M387.5 461q36.5 0 62.5 26t26 62.5t-26 62.5t-63 26q-36 0 -62 -26t-26 -62.5t26 -62.5t62.5 -26zM202 655q0 33 23.5 56.5t56.5 23.5h622q34 0 57.5 -23.5t23.5 -56.5v-539q0 -33 -23.5 -57t-57.5 -24h-622q-33 0 -56.5 24t-23.5 57v539zM1396 640v-511q0 -28 -14 -37
q-6 -3 -13 -3h-1q-12 0 -26 7l-288 140v299l288 139q14 7 26 7q8 0 13 -4q15 -9 15 -37v0zM1418 735q-22 14 -49 14h-1q-28 0 -56 -13l-258 -125v44q0 62 -44 105.5t-105 43.5h-623q-62 0 -105.5 -43.5t-43.5 -105.5v-539q0 -62 43.5 -105.5t105.5 -43.5h622q62 0 106 43.5
t44 105.5v43l258 -125q26 -14 57 -14q27 0 49 14q47 29 47 95v511q0 66 -47 95z" />
    <glyph glyph-name="quanping" unicode="&#xe66f;" 
d="M146 238h-146v-366h366v146h-220v220zM0 530h146v220h220v146h-366v-366v0zM878 18h-220v-146h366v366h-146v-220v0zM658 896v-146h220v-220h146v366h-366z" />
    <glyph glyph-name="suoxiao1" unicode="&#xe66e;" 
d="M0 91h219v-219h147v366h-366v-147v0zM219 677h-219v-147h366v366h-147v-219zM658 -128h147v219h219v147h-366v-366zM805 677v219h-147v-366h366v147h-219z" />
    <glyph glyph-name="wechat-admin" unicode="&#xe6d6;" 
d="M352 340q-91 0 -156 72t-65 174t65 174t156 72t156 -72t65 -174t-65 -174t-156 -72zM352 896q-118 0 -201.5 -91t-83.5 -219t83.5 -219t201.5 -91t201.5 91t83.5 219t-83.5 219t-201.5 91zM640 224v-179q0 -42 -30 -72t-73 -30h-370q-43 0 -73 30t-30 72v179q0 39 37 71
t83 32q13 0 22.5 9t9.5 22.5t-9.5 23t-22.5 9.5q-72 0 -128 -50t-56 -117v-179q0 -69 49 -117.5t118 -48.5h370q69 0 118 48.5t49 117.5v179q0 66 -59.5 116.5t-132.5 50.5q-13 0 -22.5 -9.5t-9.5 -23t9.5 -22.5t22.5 -9q47 0 87.5 -32.5t40.5 -70.5zM992 630q13 0 22.5 9.5
t9.5 22.5t-9.5 22.5t-22.5 9.5h-286q-14 0 -23 -9.5t-9 -22.5t9 -22.5t23 -9.5h286zM975 445q13 0 22.5 9t9.5 22.5t-9.5 23t-22.5 9.5h-286q-13 0 -22.5 -9.5t-9.5 -23t9.5 -22.5t22.5 -9h286zM992 259q13 0 22.5 9.5t9.5 23t-9.5 22.5t-22.5 9h-236q-13 0 -22.5 -9
t-9.5 -22.5t9.5 -23t22.5 -9.5h236zM975 74q13 0 22.5 9.5t9.5 22.5t-9.5 22.5t-22.5 9.5h-219q-13 0 -22.5 -9.5t-9.5 -22.5t9.5 -22.5t22.5 -9.5h219z" />
    <glyph glyph-name="wechat-user" unicode="&#xe6d7;" 
d="M512 337q-93 0 -159 73t-66 177t66 177t159 73t159 -73t66 -177t-66 -177t-159 -73zM512 896q-118 0 -200.5 -90.5t-82.5 -218t82.5 -218t200.5 -90.5t200.5 90.5t82.5 218t-82.5 218t-200.5 90.5zM805 223v-180q-1 -43 -32 -74.5t-75 -31.5h-372q-44 0 -75 31.5
t-32 74.5v180q0 40 41 73t89 33q12 0 20.5 8.5t8.5 21t-8.5 21t-20.5 8.5q-72 0 -130 -49.5t-58 -115.5v-180q0 -68 48.5 -116t116.5 -48h372q68 0 116.5 48t48.5 116v180q0 66 -55.5 115.5t-126.5 49.5q-12 0 -20.5 -8.5t-8.5 -21t8.5 -21t20.5 -8.5q47 0 85.5 -32.5
t38.5 -73.5z" />
    <glyph glyph-name="wechat_ent" unicode="&#xe6da;" 
d="M521 468v0h-4h-4v0q-25 0 -43 -17q-36 -36 -73 -72l73 -73q18 -17 43 -17v0h4h4v0q24 0 42 17q37 37 74 73l-74 72q-18 17 -42 17zM512.5 788q-121.5 0 -225 -54t-163 -147t-59.5 -203q0 -122 74 -223q1 -2 5 -7q14 -27 9 -50l-26 -93q0 -2 -1 -4.5t2 -6t13 -1t38.5 10.5
t52 14.5t23.5 7.5q15 4 40 -1q101 -51 217 -51q122 0 225 54t163 147t60 203t-60 203t-163 147t-224.5 54zM850 220h-2q-50 0 -105 54q-31 31 -57 56q-37 -36 -75 -73t-92 -37h-1h-1.5h-1.5h-1q-54 0 -92 37q-37 37 -75 73l-17 -17t-16 -15.5t-12 -12t-8.5 -8.5l-3.5 -3
q-54 -54 -105 -54h-1q-15 0 -25 10t-9.5 24.5t10.5 24.5t24 10h1v0q9 0 26 10.5t30 23.5v0q18 17 57 56q-28 28 -57 56v0q-12 12 -29 23t-27 11v0h-1v0q-14 0 -24 9.5t-10.5 24t9.5 24.5t25 11q21 0 46.5 -12.5t38 -22.5t21.5 -19q0 -1 3.5 -4t8.5 -8.5t11.5 -12t16 -15
t17.5 -17.5q38 37 75 73q39 39 95 37q55 2 94 -37q38 -36 75 -73q9 9 18 17.5t15.5 15.5t12 12t8.5 8t3 4q10 9 22 19t37.5 22.5t47.5 12.5q14 -1 24 -11t9.5 -24.5t-10.5 -24t-24 -9.5h-1v0v0q-10 0 -27 -11t-29 -23v0q0 -1 -3 -3.5t-8 -8t-12 -12t-16 -15.5t-18 -17
q28 -28 57 -56v0q13 -13 30 -23.5t26 -10.5v0h1q14 0 24 -10t10.5 -24.5t-9.5 -24.5t-24 -10z" />
    <glyph glyph-name="radio-on" unicode="&#xe6db;" 
d="M641 384q0 53 -38 91t-91 38t-91 -38t-38 -91t38 -91t91 -38t91 38t38 91zM62 384q0 186 132 318t318 132t318 -132t132 -318t-132 -318t-318 -132t-318 132t-132 318z" />
    <glyph glyph-name="radio-off" unicode="&#xe6dc;" 
d="M898 384v0q0 105 -52 193.5t-140.5 140.5t-193.5 52t-193.5 -52t-140.5 -140.5t-52 -193.5v0q0 -105 52 -193.5t140.5 -140.5t193.5 -52t193.5 52t140.5 140.5t52 193.5zM62 384q0 186 132 318t318 132t318 -132t132 -318t-132 -318t-318 -132t-318 132t-132 318z" />
    <glyph glyph-name="xuanzhonggougou2" unicode="&#xe6dd;" 
d="M62 705q0 53 37.5 91t91.5 38h642q53 0 91 -37.5t38 -91.5v-642v0q0 -53 -38 -91t-91 -38v0h-642v0q-53 0 -91 38t-38 91v0v642v0zM435 258l-135 126l-45 -42l180 -168l386 361l-45 42z" />
    <glyph glyph-name="fuxuankuang_weixuanzhong" unicode="&#xe6de;" 
d="M126 63q0 -27 19 -46t46 -19h642q27 0 46 19t19 46v642q0 27 -19 46t-46 19h-642q-27 0 -46 -19t-19 -46v-642zM191 834h642q53 0 91 -37.5t38 -91.5v-642v0q0 -53 -38 -91t-91 -38v0h-642v0q-53 0 -91 38t-38 91v0v642q0 53 38 91t91 38v0z" />
    <glyph glyph-name="folder-close" unicode="&#xe693;" 
d="M900 666h-377l-94 95h-280q-40 0 -68 -28.5t-28 -67.5v0v-562q0 -39 28 -67.5t68 -28.5h749q40 0 68 28.5t28 67.5v469q0 39 -27.5 66.5t-66.5 27.5zM994 478h-941v51h941v-51z" />
    <glyph glyph-name="folder-open" unicode="&#xe694;" 
d="M947 457h-771h-1q-14 0 -24 -8q-12 -8 -12 -20l-74 -383q0 -8 11.5 -15.5t26.5 -7.5h770h1q13 0 22.5 7.5t13.5 19.5l6.5 34t13.5 68l7 34l48 248q1 11 -10.5 17t-27.5 6zM176 509h761v56q0 37 -26.5 63.5t-63.5 26.5h-359l-90 90h-269q-37 0 -63.5 -26.5t-26.5 -63.5
v-465l48 244q5 34 29 54.5t60 20.5z" />
    <glyph glyph-name="form" unicode="&#xe695;" 
d="M918 659l-158 161q-24 25 -58 25h-493q-33 0 -57 -24t-24 -57v-759q0 -34 24 -58t57 -24h651q34 0 57.5 24t23.5 58v597q0 33 -23 57zM718 747l110 -113h-110v113zM209 5v758h428v-188v0v-22h223v-548h-651v0zM305 551h302v-81h-302v81zM305 395h459v-81h-459v81z
M305 239h459v-81h-459v81z" />
    <glyph glyph-name="user-switch" unicode="&#xe6df;" 
d="M383 366q0 13 -9 22.5t-23 9.5q-55 0 -94 42t-39 101t39 101t94 42q13 1 22 10t9 22t-9 22.5t-22 9.5q-81 0 -139 -60.5t-58 -146.5q0 -49 21.5 -93.5t59.5 -73.5q-86 -37 -138.5 -119t-52.5 -181q1 -13 10 -21.5t22 -8.5t22 8.5t10 21.5q0 107 71.5 183.5t171.5 76.5
q14 0 23 9.5t9 22.5zM604 795q-99 0 -169 -70t-70 -169q0 -60 28.5 -112.5t78.5 -85.5q-109 -41 -176.5 -138.5t-67.5 -214.5q0 -13 9.5 -21.5t22 -8.5t22 8.5t10.5 21.5q0 129 91.5 220.5t220.5 91.5v0l6 1q96 2 164 72t68 166q0 99 -69.5 169t-168.5 70v0zM778 556.5
q0 -72.5 -51 -123.5t-123 -51t-123.5 51t-51.5 123.5t51.5 123.5t123.5 51t123 -51t51 -123.5zM870 271q-9 9 -22.5 9t-22.5 -9.5t-9 -22.5t9 -23q91 -90 91 -219v-1q1 -13 10 -21.5t22 -8.5t22 8.5t10 21.5v1q0 76 -29 144.5t-81 120.5v0z" />
    <glyph glyph-name="report" unicode="&#xe696;" 
d="M819 819h-614q-32 0 -54.5 -22.5t-22.5 -54.5v-716q0 -32 22.5 -54.5t54.5 -22.5v0h614q32 0 54.5 22.5t22.5 54.5v716q0 32 -22.5 54.5t-54.5 22.5zM819 605h-614v137h614v-137zM717 26v427h-77v-427h-87v332h-77v-332h-88v214h-77v-214h-106v502h614v-502h-102z" />
    <glyph glyph-name="wodeyingyong-06" unicode="&#xe6e0;" 
d="M619 491h-71v72h71v-72zM619 348h-71v72h71v-72zM619 205h-71v72h71v-72zM476 491h-71v72h71v-72zM476 348h-71v72h71v-72zM476 205h-71v72h71v-72zM691 670v71h-358v-71h-107v-643h215v71h142v-71h215v643h-107z" />
    <glyph glyph-name="wodeyingyong-03" unicode="&#xe6e1;" 
d="M837 412h-53v142q0 29 -21 50t-50 21h-142v53q0 37 -26 63t-63 26t-63 -26t-26 -63v-53h-142q-29 0 -49.5 -21t-20.5 -50v-135h53q40 0 68 -28t28 -68t-28 -67.5t-68 -27.5h-53v-135q0 -29 20.5 -50t49.5 -21h135v53q0 40 28 68t68 28t68 -28t28 -68v-53h134
q30 0 50.5 21t20.5 50v142h54q37 0 62.5 25.5t25.5 62.5v1q0 37 -25.5 62.5t-61.5 25.5h-1v0z" />
    <glyph glyph-name="wodeyingyong-01" unicode="&#xe6e2;" 
d="M759 763h-494q-29 0 -49.5 -20t-20.5 -49v-445q0 -38 32 -58l285 -186l285 186q32 25 32 58v445q0 29 -20.5 49t-49.5 20zM442 246l-177 173l50 48l127 -124l267 262l50 -49z" />
    <glyph glyph-name="wodeyingyong-08" unicode="&#xe6e3;" 
d="M732 282q-31 0 -61 24l-51 51l-50 -51q-24 -24 -58 -24q-31 0 -61 24l-51 51l-51 -51q-23 -24 -57 -24h-1q-35 0 -59.5 25t-24.5 59v1q0 36 24.5 60.5t60.5 24.5h440q36 0 60.5 -24.5t24.5 -60t-24.5 -60.5t-60.5 -25zM732 519h-186v51h-68v-51h-186h-1q-63 0 -107 -44
t-44 -107v-1q0 -80 67 -125v-230h610v230q31 21 49 54t18 72v0q0 63 -44 107t-107 44h-1v0zM512 604q20 0 35.5 15.5t15.5 35.5q0 7 -7 27l-44 74l-44 -74q-7 -13 -7 -28q0 -20 15.5 -35t35.5 -15z" />
    <glyph glyph-name="wodeyingyong-02" unicode="&#xe6e4;" 
d="M591 186h-277v79h277v-79zM710 344h-396v80h396v-80v0zM710 503h-396v79h396v-79v0zM789 740h-554q-33 0 -56 -23t-23 -56v-554q0 -33 23 -56t56 -23h554q33 0 56 23t23 56v554q0 33 -23 56t-56 23z" />
    <glyph glyph-name="wodeyingyong-05" unicode="&#xe6e5;" 
d="M815 178h-329v42q0 24 30.5 44t67.5 29t66.5 9t66.5 -9t67.5 -29t30.5 -44v-42v0zM650.5 507q33.5 0 58 -24t24.5 -58t-24.5 -58t-58 -24t-58 24t-24.5 58t24.5 58t58 24zM856 631h-329l-82 82h-247q-34 0 -58 -24t-24 -58v-494q0 -34 24 -58t58 -24h658q34 0 58 24
t24 58v411q0 34 -24 58.5t-58 24.5z" />
    <glyph glyph-name="wodeyingyong-04" unicode="&#xe6e6;" 
d="M458 186l-131 130l53 52l78 -78l194 194l52 -52zM439 689h149v-75h-149v75zM812 614h-149v75l-75 74h-149l-74 -74v-75h-149q-31 0 -53 -21.5t-22 -52.5v-410q0 -31 22 -53t53 -22h596q31 0 53 22t22 53v410q0 31 -22 52.5t-53 21.5z" />
    <glyph glyph-name="wodeyingyong-10" unicode="&#xe6e7;" 
d="M751 166q-10 25 -30.5 40.5t-46.5 15.5h-41v122q0 18 -11 29t-29 11h-243v81h81q18 0 29.5 11t11.5 29v81h80q34 0 57.5 24t23.5 57v16q90 -37 146.5 -118.5t56.5 -180.5q0 -127 -85 -218zM472 64q-119 16 -201.5 107.5t-82.5 212.5q0 24 9 73l194 -194v-41
q0 -33 23.5 -57t57.5 -24v-77zM512 788q-109 0 -202.5 -54t-147.5 -147.5t-54 -202.5t54 -202.5t147.5 -147.5t202.5 -54t202.5 54t147.5 147.5t54 202.5t-54 202.5t-147.5 147.5t-202.5 54z" />
    <glyph glyph-name="wodeyingyong-09" unicode="&#xe6e8;" 
d="M724 159h-83v166h83v-166zM557 159h-83v416h83v-416zM391 159h-83v291h83v-291zM807 742h-583q-34 0 -58.5 -24.5t-24.5 -58.5v-583q0 -35 24.5 -59.5t58.5 -24.5h583q34 0 58.5 24.5t24.5 59.5v582q0 35 -24 59.5t-59 24.5z" />
    <glyph glyph-name="wodeyingyong-07" unicode="&#xe6e9;" 
d="M512 503q-33 0 -56 23.5t-23 56t23 56t56 23.5t56 -23.5t23 -56t-23 -56t-56 -23.5zM512 305q-33 0 -56 23t-23 56t23 56t56 23t56 -23t23 -56t-23 -56t-56 -23zM512 106q-33 0 -56 23.5t-23 56t23 56t56 23.5t56 -23.5t23 -56t-23 -56t-56 -23.5zM829 463h-119v44
q52 12 85.5 55.5t33.5 99.5h-119v39q0 18 -10.5 29t-28.5 11h-318q-18 0 -28.5 -11t-10.5 -29v-39h-119q0 -56 33.5 -98t85.5 -57v-44h-119q0 -55 33.5 -97t85.5 -57v-44h-119q0 -55 33.5 -97t85.5 -58v-43q0 -18 10.5 -29t28.5 -11h318q18 0 28.5 11t10.5 29v43
q52 12 85.5 55.5t33.5 99.5h-119v44q52 15 85.5 57t33.5 97z" />
    <glyph glyph-name="app-ref" unicode="&#xe6ea;" 
d="M994 168q-9 9 -22 9q-12 0 -22 -9l-70 -68v454q0 101 -57 165t-147 64q-89 0 -143.5 -63.5t-54.5 -165.5v-335q0 -50 -42 -104q-45 -59 -97 -59t-95 56.5t-43 106.5v435l65 -64q9 -9 22 -9q12 0 22 9q9 9 9 22q0 12 -9 21l-141 139l-139 -139q-9 -9 -9 -21q0 -13 9 -22
q11 -9 22 -9q15 0 23 9l59 60v-431q0 -101 57 -165t147.5 -64t147.5 64t57 165v335q0 31 14.5 67t45.5 66t71.5 30t73.5 -29.5t49 -66.5t16 -67v-441l-55 55q-9 9 -22 9q-12 0 -22 -9q-9 -10 -9 -22.5t9 -21.5l139 -139l140 139q10 10 10 22.5t-9 21.5z" />
    <glyph glyph-name="huifu-07" unicode="&#xe641;" 
d="M693 55h-284q-111 0 -190 79t-79 191q0 111 79 190t190 79h450v-51h-450q-90 0 -154 -64t-64 -154.5t64 -154.5t154 -64h284v-51zM740 724l155 -155l-36 -37l-156 156zM859 605l36 -36l-155 -156l-37 36z" />
    <glyph glyph-name="icon_single_file" unicode="&#xe643;" 
d="M922 896h-820q-42 0 -72 -30t-30 -72v-820q0 -42 30 -72t72 -30h820q42 0 72 30t30 72v820q0 42 -30 72t-72 30zM773 274h-370q-45 0 -77 32t-32 78t32 78t77 32h327v-66h-327q-19 0 -31 -12t-12 -32t12 -32t31 -12h370q46 0 77.5 32t31.5 78t-31.5 78t-77.5 32h-457
q-72 0 -123 -51.5t-51 -124.5t51 -124.5t123 -51.5h414v-66h-414q-98 0 -168.5 71.5t-70.5 170.5t70.5 170.5t168.5 71.5h457q72 0 123 -52t51 -124.5t-51 -124t-123 -51.5z" />
    <glyph glyph-name="huifu-07-07" unicode="&#xe644;" 
d="M856 637l-77 77l-44 -43l47 -47h-219q-79 0 -134.5 -56t-55.5 -134.5t55.5 -134t134.5 -55.5h123v61h-123q-53 0 -91 37.5t-38 91t38 91t91 37.5h219l-47 -47l44 -43l77 78l44 43zM787 128q0 -21 -15 -35.5t-35 -14.5h-448q-21 0 -35.5 14.5t-14.5 35.5v512
q0 21 14.5 35.5t35.5 14.5h282v62h-282q-46 0 -78.5 -33t-32.5 -79v-512q0 -46 32.5 -79t78.5 -33h448q46 0 78.5 33t32.5 79v238h-61v-238z" />
    <glyph glyph-name="wps-template" unicode="&#xe6cd;" 
d="M21 783q0 37 26.5 63.5t63.5 26.5h263q37 0 63.5 -26.5t26.5 -63.5v-263q0 -37 -26.5 -63.5t-63.5 -26.5h-263q-37 0 -63.5 26.5t-26.5 63.5v263zM575 783q0 37 26 63.5t64 26.5h262q38 0 64 -26.5t26 -63.5v-263q0 -37 -26 -63.5t-64 -26.5h-262q-38 0 -64 26.5
t-26 63.5v263zM21 229q0 37 26.5 63.5t63.5 26.5h263q37 0 63.5 -26.5t26.5 -63.5v-262q0 -38 -26.5 -64.5t-63.5 -26.5h-263q-37 0 -63.5 26.5t-26.5 64.5v262zM575 229q0 37 26 63.5t64 26.5h262q38 0 64 -26.5t26 -63.5v-262q0 -38 -26 -64.5t-64 -26.5h-262
q-38 0 -64 26.5t-26 64.5v262z" />
    <glyph glyph-name="wps-create" unicode="&#xe6eb;" 
d="M93 710h-93v-745q0 -38 27.5 -65.5t65.5 -27.5h745v93h-745v745zM931 896h-652q-38 0 -65.5 -27.5t-27.5 -65.5v-652q0 -38 27.5 -65.5t65.5 -27.5h652q38 0 65.5 27.5t27.5 65.5v652q0 38 -27.5 65.5t-65.5 27.5zM838 431h-186v-187h-93v187h-187v93h187v186h93v-186
h186v-93z" />
    <glyph glyph-name="zuoyoujiantou" unicode="&#xe648;" 
d="M743 809l-36 36l-451 -451l451 -450l36 36l-415 414z" />
    <glyph glyph-name="xiangyou" unicode="&#xe649;" 
d="M256 809l36 36l451 -451l-451 -450l-36 36l414 414z" />
    <glyph glyph-name="zibiaodanxiala" unicode="&#xe650;" 
d="M761 191h-399q-21 1 -35 15t-14 34v399q0 21 -14.5 35.5t-35 14.5t-35 -14.5t-14.5 -35.5v-399q0 -61 43.5 -104.5t104.5 -43.5h399v0q20 0 34.5 14.5t14.5 35t-14.5 35t-34.5 14.5v0z" />
    <glyph glyph-name="kongjian_quxiao" unicode="&#xe6ec;" horiz-adv-x="1331" 
d="M764 506h-544l264 260q18 16 18 40t-18 40q-17 18 -38.5 18t-39.5 -17l-357 -349q-17 -17 -17 -38.5t17 -38.5l358 -349q17 -18 38.5 -18t39.5 18q17 17 17 38t-17 39l-265 255h544q107 0 200.5 -50.5t150 -138t56.5 -190.5v-54q0 -24 13.5 -39.5t36.5 -15.5t37 15.5
t14 39.5v54q0 100 -40.5 189.5t-108.5 153t-162 101t-197 37.5v0z" />
    </font>
</defs>
</svg>
